<?xml version="1.0" encoding="utf-8"?>
<!-- Generator: Adobe Illustrator 19.0.0, SVG Export Plug-In . SVG Version: 6.00 Build 0)  -->
<svg version="1.1" id="Microscope_x5F_icon" xmlns="http://www.w3.org/2000/svg" xmlns:xlink="http://www.w3.org/1999/xlink"
	 x="0px" y="0px" viewBox="0 0 300 300" style="enable-background:new 0 0 300 300;" xml:space="preserve">
<style type="text/css">
	.st0{fill:#141B91;}
	.st1{fill:#FFFFFF;}
	.st2{fill:none;stroke:#FFFFFF;stroke-width:9;stroke-miterlimit:10;}
	.st3{fill:none;stroke:#FFFFFF;stroke-width:8;stroke-miterlimit:10;}
</style>
<g id="Layer_8">
	<circle class="st0" cx="150" cy="150" r="150"/>
</g>
<g id="Layer_2">
	<g>
		<g>
			<path class="st1" d="M100.8,156.4c0,17.2,10.7,31.8,25.8,37.7v-10c-10-5.2-16.8-15.7-16.8-27.7c0-16.1,12.2-29.3,27.8-31.1v-9.2
				C117,118,100.8,135.3,100.8,156.4z"/>
			<path class="st1" d="M123.4,203.8c-20-7.2-34.2-25.7-34.2-47.4c0-26.6,21.4-48.5,48.5-50.5v-9c-32,2-57.5,27.9-57.5,59.5
				c0,26.2,17.6,48.5,41.9,56.4"/>
		</g>
		<path class="st2" d="M189.5,208.3h-72c-13.2,0-24,11.2-24,25v1.7c0,1.7,0.2,3.3,0.5,4.9H213c0.3-1.6,0.5-3.2,0.5-4.9v-1.7
			C213.5,219.6,202.7,208.3,189.5,208.3z"/>
		<line class="st3" x1="155.5" y1="44.6" x2="155.5" y2="69.8"/>
		<path class="st3" d="M171.6,75.2v56c0,4.4-3.6,8-8,8h-16.3c-4.4,0-8-3.6-8-8v-56c0-4.4,3.6-8,8-8h16.3
			C168,67.2,171.6,70.8,171.6,75.2z"/>
		<line class="st3" x1="154" y1="136.8" x2="154" y2="155.7"/>
		<path class="st1" d="M176.8,187.4h-39.2v0c-3.9-0.5-7.6-1.6-11-3.4v10c3.5,1.3,7.2,2.2,11,2.6v0.1h39.2c5.5,0,10,5.5,10,12.3h7.5
			C194.3,197.1,186.5,187.4,176.8,187.4z"/>
	</g>
</g>
</svg>
