<?xml version="1.0" encoding="utf-8"?>
<!-- Generator: Adobe Illustrator 19.0.0, SVG Export Plug-In . SVG Version: 6.00 Build 0)  -->
<svg version="1.1" id="Layer_1" xmlns="http://www.w3.org/2000/svg" xmlns:xlink="http://www.w3.org/1999/xlink" x="0px" y="0px"
	 viewBox="122 -150 970 500" style="enable-background:new 122 -150 970 500;" xml:space="preserve">
<style type="text/css">
	@font-face {
    font-family: 'OpenSans';
    src: url(../fonts/OpenSans.ttf);
   }
	.st0{fill:none;}
	.st1{fill:none;stroke:#6D6B6B;stroke-miterlimit:10;}
	.st2{fill:#8E8E8E;}
	.st3{fill:#969595;}
	.st4{fill:#6D6B6B;}
	.st5{fill:none;stroke:#474646;stroke-miterlimit:10;}
	.st6{fill:url(#SVGID_1_);stroke:url(#SVGID_2_);stroke-miterlimit:10;}
	.st7{fill:#3A3A3A;}
	.st8{fill:#707070;}
	.st9{fill:url(#SVGID_3_);}
	.st10{fill:none;stroke:#000000;stroke-miterlimit:10;}
	.st11{fill:url(#SVGID_4_);}
	.st12{fill:#D84545;stroke:#D84545;stroke-width:3;stroke-miterlimit:10;}
	.st13{fill:#6D6B6B;stroke:#000000;stroke-miterlimit:10;}
	.st14{fill:#B2B1B1;}
	.st15{fill:#f2aa8b; opacity: 0.5;}
	.st16{font-family:'OpenSans';}
	.st17{font-size:16px;}
	.st18{fill:#FFFFFF;}
	.st19{opacity:0.16;fill:#969595;enable-background:new    ;}
	.st20{opacity:0.21;fill:#969595;enable-background:new    ;}
	.st21{opacity:0.28;fill:#969595;enable-background:new    ;}
	.st22{opacity:0.54;fill:#969595;enable-background:new    ;}
	.st23{opacity:0.59;fill:#969595;enable-background:new    ;}
	.st24{opacity:0.65;fill:#969595;enable-background:new    ;}
	.st25{opacity:0.75;fill:#969595;enable-background:new    ;}
	.st26{opacity:0.85;fill:#969595;enable-background:new    ;}
	.st27{font-size:36px;}
	.st28{fill:none;stroke:#969696;stroke-miterlimit:10;}
	.st29{fill-opacity:0;}
	.st30{font-size:18px;}
	.st31{font-size:21px;}
	.st32 {visibility:hidden; opacity:0;}
	.st33 {fill: #f2aa8b; opacity: 0.8;}
</style>
<rect x="139" y="-79" class="st0" width="732.9" height="106.5"/>
<rect x="768" y="-63" class="st1" width="39" height="84.5"/>
<path class="st2" d="M792.5-13h-9c-2.8,0-5-2.3-5-5v-20.5c0-2.8,2.3-5,5-5h9c2.8,0,5,2.3,5,5V-18C797.5-15.2,795.3-13,792.5-13z"/>
<path class="st3" d="M920.5-6.1c10.7,0.6,22.8,2.1,36,5.2c10.7,2.5,20.4,5.7,29,9.1L995-9.4c-11.2-7.2-24.4-14.5-39.5-20.8
	c-19-8-36.3-12.4-51-15L904-6.8L920.5-6.1z"/>
<path class="st4" d="M1008.5-6.5"/>
<path class="st5" d="M953-34.5"/>
<linearGradient id="SVGID_1_" gradientUnits="userSpaceOnUse" x1="122" y1="-71.2" x2="873" y2="-71.2">
	<stop  offset="0" style="stop-color:#FFFFFF"/>
	<stop  offset="0.1182" style="stop-color:#6D6B6B"/>
</linearGradient>
<linearGradient id="SVGID_2_" gradientUnits="userSpaceOnUse" x1="121.5" y1="-71.2" x2="873.5" y2="-71.2">
	<stop  offset="0" style="stop-color:#FFFFFF"/>
	<stop  offset="8.620689e-002" style="stop-color:#020000"/>
</linearGradient>
<rect x="122" y="-78.7" class="st6" width="751" height="15"/>
<circle class="st7" cx="285.5" cy="46.5" r="12.5"/>
<circle class="st7" cx="370" cy="46.5" r="12.5"/>
<circle class="st7" cx="868.5" cy="46.5" r="12.5"/>
<circle class="st7" cx="952.5" cy="46.5" r="12.5"/>
<circle class="st8" cx="153.5" cy="46.5" r="12.5"/>
<linearGradient id="SVGID_3_" gradientUnits="userSpaceOnUse" x1="122" y1="35.85" x2="871.9" y2="35.85">
	<stop  offset="0" style="stop-color:#FFFFFF"/>
	<stop  offset="0.1182" style="stop-color:#969595"/>
</linearGradient>
<rect x="122" y="27.5" class="st9" width="749.9" height="16.7"/>
<rect x="871.9" y="27.5" class="st3" width="103.1" height="16.7"/>
<path class="st10" d="M871.9-78.7c10.9,0.8,24.9,2.4,40.8,5.9c9.1,2,32.9,7.6,63,21.5c5,2.3,41.2,19.4,76.4,52.9
	c8.7,8.3,14.9,15.4,13.5,22.3c-2.5,12.4-29.8,16.7-37.7,18c-7.1,1.2-13.7,1.3-27,1.7c-10.4,0.3-19,0.2-24.9,0"/>
<path class="st10" d="M927,71"/>
<linearGradient id="SVGID_4_" gradientUnits="userSpaceOnUse" x1="122" y1="12.7" x2="978" y2="12.7">
	<stop  offset="0" style="stop-color:#FFFFFF"/>
	<stop  offset="8.620689e-002" style="stop-color:#E94437"/>
</linearGradient>
<rect x="122" y="11.2" class="st11" width="856" height="3"/>
<path class="st12" d="M976.3,12.5c13.8,1.6,28.1,3.7,43,6.2c15.8,2.7,30.9,5.6,45.1,8.8"/>
<path class="st13" d="M873-78.5c15.3,1.5,28.3,3.8,38.5,6c23.6,5.2,40.6,11.6,44.8,13.3c12.9,5,23,10,28.8,13.1
	c9.2,4.8,15.7,8.9,21.3,12.4c11.6,7.3,18.7,12.7,24,17c6.1,4.9,9.1,7.3,8.8,8c-1.5,2.8-44.9-21.8-99-39c-27.1-8.6-50.4-13.3-67-16"
	/>
<path class="st14" d="M1038-9.2c0.9-1.5-13-11.6-18-15.2c-2.1-1.6-11.3-7.9-24.5-15.8c-4.9-3-9.2-5.2-12.3-6.7c-5.2-2.5-15-7-24-6.3
	c-1.5,0.1-3.5,0.4-4.3,1.8c-1.2,2,0.4,5.2,1.7,6.8c1.7,2.2,3.9,3.3,4.8,3.7c0.2,0.1,0.3,0.1,0.3,0.1c1.7,0.7,27.5,11,63.5,26.8
	C1032.9-10.4,1037.5-8.4,1038-9.2z"/>

	<g>
	<path id="XMLDEVBACK" class="st15" d="M738.5-6.7H618c-6.6,0-12-5.4-12-12v-12.7c0-6.6,5.4-12,12-12h120.5c6.6,0,12,5.4,12,12v12.7
		C750.5-12.1,745.1-6.7,738.5-6.7z"/>
	<text transform="matrix(1 0 0 1 618.7632 -19.3398)" class="st16 st17">XML Developers</text>
    </g>
<g>
	<g>
		<path id="UIDESIGNBACK" class="st15" d="M583.9-6.7H468.1c-6.6,0-12-5.4-12-12v-12.7c0-6.6,5.4-12,12-12h115.8c6.6,0,12,5.4,12,12
			v12.7C595.9-12.1,590.5-6.7,583.9-6.7z"/>
		<text transform="matrix(1 0 0 1 476.5132 -20.3398)" class="st16 st17">UI Designers</text>
	</g>
</g>
<g>
	<path id="QAENGBACK" class="st15" d="M434.9-6.7H319.1c-6.6,0-12-5.4-12-12v-12.7c0-6.6,5.4-12,12-12h115.8c6.6,0,12,5.4,12,12
		v12.7C446.9-12.1,441.5-6.7,434.9-6.7z"/>
	<text transform="matrix(1 0 0 1 322.0132 -21.3398)" class="st16 st17">QA Engineers</text>
</g>
<g>
	<path id="JAVADEVBACK" class="st33" d="M286-6.5H165.5c-6.6,0-12-5.4-12-12v-13c0-6.6,5.4-12,12-12H286c6.6,0,12,5.4,12,12v13
		C298-11.9,292.6-6.5,286-6.5z"/>
	<text transform="matrix(1 0 0 1 165.2632 -21.3398)" class="st16 st17">Java Developers</text>
</g>
<path class="st0" d="M286-6.5H165.5c-6.6,0-12-5.4-12-12v-13c0-6.6,5.4-12,12-12H286c6.6,0,12,5.4,12,12v13
	C298-11.9,292.6-6.5,286-6.5z"/>
<path class="st0" d="M442.8-6.5H322.3c-6.6,0-12-5.4-12-12v-13c0-6.6,5.4-12,12-12h120.5c6.6,0,12,5.4,12,12v13
	C454.8-11.9,449.4-6.5,442.8-6.5z"/>
<path class="st0" d="M587.3-5.5H466.8c-6.6,0-12-5.4-12-12v-13c0-6.6,5.4-12,12-12h120.5c6.6,0,12,5.4,12,12v13
	C599.3-10.9,593.9-5.5,587.3-5.5z"/>
<path class="st0" d="M739.5-4.5H619c-6.6,0-12-5.4-12-12v-13c0-6.6,5.4-12,12-12h120.5c6.6,0,12,5.4,12,12v13
	C751.5-9.9,746.1-4.5,739.5-4.5z"/>
<path class="st3" d="M833-6.9h69.5c6.6,0,12-5.4,12-12v-14c0-6.6-5.4-12-12-12H833c-6.6,0-12,5.4-12,12v14
	C821-12.3,826.4-6.9,833-6.9z"/>
<polyline class="st18" points="293.7,-121.8 353.7,-121.8 353.7,-79.3 "/>
<path class="st18" d="M329,193.3"/>
<polygon class="st19" points="188.7,-130.2 221.4,-112.7 188.7,-94.6 188.7,-102.9 206.7,-112.7 188.7,-121.6 "/>
<polygon class="st20" points="213,-130.5 245.7,-112.9 213,-94.8 213,-103.2 231,-112.9 213,-121.8 "/>
<polygon class="st21" points="237.4,-130.5 270,-112.9 237.4,-94.8 237.4,-103.2 255.4,-112.9 237.4,-121.8 "/>
<polygon class="st22" points="261.5,-130.2 294.2,-112.7 261.5,-94.6 261.5,-102.9 279.5,-112.7 261.5,-121.6 "/>
<polygon class="st23" points="286.3,-130.5 319,-112.9 286.3,-94.8 286.3,-103.2 304.3,-112.9 286.3,-121.8 "/>
<polyline class="st18" points="455.7,-133.8 515.7,-133.8 515.7,-91.3 "/>
<polygon class="st24" points="312,-130.2 344.7,-112.6 312,-94.5 312,-102.8 330,-112.6 312,-121.5 "/>
<polygon class="st25" points="336.4,-130.4 369,-112.8 336.4,-94.7 336.4,-103.1 354.4,-112.8 336.4,-121.7 "/>
<polygon class="st26" points="360.7,-130.4 393.4,-112.8 360.7,-94.7 360.7,-103.1 378.7,-112.8 360.7,-121.7 "/>
<polygon class="st3" points="384.9,-130.2 417.5,-112.6 384.9,-94.5 384.9,-102.8 402.9,-112.6 384.9,-121.5 "/>
<polygon class="st3" points="409.6,-130.4 442.3,-112.8 409.6,-94.7 409.6,-103.1 427.6,-112.8 409.6,-121.7 "/>
<rect x="521.2" y="-136.2" class="st0" width="162.1" height="38.8"/>
<text transform="matrix(1 0 0 1 536.229 -98.8066)" class="st3 st16 st27">AGILE</text>
<polyline class="st18" points="874.7,-121.5 934.7,-121.5 934.7,-79 "/>
<polygon class="st3" points="769.7,-129.9 802.4,-112.3 769.7,-94.2 769.7,-102.6 787.7,-112.3 769.7,-121.2 "/>
<polygon class="st3" points="794,-130.2 826.7,-112.6 794,-94.5 794,-102.8 812,-112.6 794,-121.5 "/>
<polygon class="st26" points="818.4,-130.2 851,-112.6 818.4,-94.5 818.4,-102.8 836.4,-112.6 818.4,-121.5 "/>
<polygon class="st25" points="842.5,-129.9 875.2,-112.3 842.5,-94.2 842.5,-102.6 860.5,-112.3 842.5,-121.2 "/>
<polygon class="st24" points="867.3,-130.2 900,-112.6 867.3,-94.5 867.3,-102.8 885.3,-112.6 867.3,-121.5 "/>
<polygon class="st23" points="893,-129.8 925.7,-112.2 893,-94.2 893,-102.5 911,-112.2 893,-121.2 "/>
<polygon class="st22" points="917.4,-130.1 950,-112.5 917.4,-94.4 917.4,-102.7 935.4,-112.5 917.4,-121.4 "/>
<polygon class="st21" points="941.7,-130.1 974.4,-112.5 941.7,-94.4 941.7,-102.7 959.7,-112.5 941.7,-121.4 "/>
<polygon class="st20" points="965.9,-129.8 998.5,-112.2 965.9,-94.2 965.9,-102.5 983.9,-112.2 965.9,-121.2 "/>
<polygon class="st19" points="990.6,-130.1 1023.3,-112.5 990.6,-94.4 990.6,-102.7 1008.6,-112.5 990.6,-121.4 "/>
<rect x="871.9" y="-78" class="st4" width="2.1" height="13.7"/>
<rect x="633.6" y="169.8" class="st0" width="458.4" height="180.2"/>
<rect x="619.9" y="123.9" class="st0" width="451.3" height="29.9"/>
<rect x="393.4" y="66.8" class="st0" width="357.1" height="40.9"/>
<rect x="122" y="-149" class="st28" width="970" height="499"/>
<script  type="text/ecmascript">
	<![CDATA[

    function EventClick(evt)
    {
    	var positionRect = evt.target.id;
		var lengthIdRect = positionRect.length;
		var lengthIdText = lengthIdRect - 4;
		var PositionId = positionRect.substr (0,lengthIdText);

		var ArrayOfPositions = ["JAVADEVGROUP", "XMLDEVGROUP", "QAENGGROUP", "UIDESIGNGROUP"];
		var ArrayOfBack = ["JAVADEVBACK", "XMLDEVBACK", "QAENGBACK", "UIDESIGNBACK"];
		var PositionGroupText = PositionId + "GROUP";
		var PositionBackText = PositionId + "BACK"
		var PositionDescription = this.document.getElementById(PositionGroupText);
		var PositionBack = this.document.getElementById(PositionBackText);
        PositionBack.style.opacity = 0.8;
		PositionDescription.style.visibility = "visible";
		PositionDescription.style.transition = "opacity 1s, visibility 0s";
        PositionDescription.style.opacity = "1";
		for (var i = 0; i < ArrayOfPositions.length ; i++)
    	{
				  var PositionDescrEl = this.document.getElementById(ArrayOfPositions[i]);
				  var PositionBackEl = this.document.getElementById(ArrayOfBack[i]);
				  PositionDescription.style.transition = "opacity 0.25s visibility 0s 0.25s";
				  PositionBack.style.transition = "opacity 0.25s visibility 0s 0.25s";
				  if (PositionDescrEl !== PositionDescription)
				  {PositionDescrEl.style.visibility = "hidden";
				   PositionDescrEl.style.opacity = 0;
                   PositionBackEl.style.opacity = 0.5;
				   }
        }
   }

   function SelectEvent(evt,event) {
	// Here the Rectangle element is taken reverted to text and the "RECT" text is removed from ID name to ge the EventID
		var CareerRECT = evt.target.id;
		var lengthIdRECT = CareerRECT.length;
		var lengthIdCareer = lengthIdRECT - 4;
		var CareerId = CareerRECT.substr (0,lengthIdCareer);
		var ArrayOfCareerDescriptions = ["JAVADEVGROUP", "QAENGGROUP", "UIDESIGNGROUP", "XMLDEVGROUP"];
	    var CareerGROUPTXT = CareerId + "BACK";
	    var CareerGROUP = this.document.getElementById(CareerGROUPTXT);
	    var ArrayOfCareers = ["JAVADEVBACK", "QAENGBACK", "UIDESIGNBACK", "XMLDEVBACK"];
//		if (event == "mouseover")
//		{CareerGROUP.style.opacity = 0.8;}

//        else if (event =="mouseout")
//        {
//          for (var i = 0; i < ArrayOfCareerDescriptions.length ; i++)
//          {

//          }
//        }


	}
		
		]]>
</script>
<a style="cursor:pointer">
	<path id="JAVADEVRECT" onclick="EventClick(evt)" onmouseover="SelectEvent(evt,'mouseover')" onmouseout="SelectEvent(evt,'mouseout')" class="st29" d="M286-4.5H165.5c-6.6,0-12-5.4-12-12v-16.7c0-6.6,5.4-12,12-12
		H286c6.6,0,12,5.4,12,12v16.7C298-9.9,292.6-4.5,286-4.5z"/>
</a>
<a style="cursor:pointer">
	<path id="QAENGRECT" onclick="EventClick(evt)" onmouseover="SelectEvent(evt,'mouseover')" onmouseout="SelectEvent(evt,'mouseout')" class="st29" d="M437.3-4.6H316.8c-6.6,0-12-5.4-12-12v-16.7c0-6.6,5.4-12,12-12
		h120.5c6.6,0,12,5.4,12,12v16.7C449.3-10,443.9-4.6,437.3-4.6z"/>
</a>
<a style="cursor:pointer">
	<path id="UIDESIGNRECT" onclick="EventClick(evt)" onmouseover="SelectEvent(evt,'mouseover')" onmouseout="SelectEvent(evt,'mouseout')" class="st29" d="M587.3-4.6H466.8c-6.6,0-12-5.4-12-12v-16.7c0-6.6,5.4-12,12-12
		h120.5c6.6,0,12,5.4,12,12v16.7C599.3-10,593.9-4.6,587.3-4.6z"/>
</a>
<a style="cursor:pointer">
	<path id="XMLDEVRECT" onclick="EventClick(evt)" onmouseover="SelectEvent(evt,'mouseover')" onmouseout="SelectEvent(evt,'mouseout')" class="st29" d="M738.5-4.6H618c-6.6,0-12-5.4-12-12v-16.7c0-6.6,5.4-12,12-12
		h120.5c6.6,0,12,5.4,12,12v16.7C750.5-10,745.1-4.6,738.5-4.6z"/>
</a>
<g id="JAVADEVGROUP">
	<text transform="matrix(1 0 0 1 633.6455 192)" class="st16 st17">разработка лучших в отрасли информационных систем</text>
	<text transform="matrix(1 0 0 1 633.6455 216)" class="st16 st17">модернизация экосистемы приложений компании</text>
	<text transform="matrix(1 0 0 1 633.6455 240)" class="st16 st17">активное участие в развитии команды</text>
	<text transform="matrix(1 0 0 1 619.9167 147.563)" class="st16 st30">Вам предстоит: </text>
	<g>
		<circle class="st15" cx="621" cy="187.3" r="5"/>
		<circle class="st15" cx="621" cy="211.8" r="5"/>
		<circle class="st15" cx="621" cy="234.8" r="5"/>
	</g>
	<text transform="matrix(1 0 0 1 149 191.7533)" class="st16 st17">техническое образование</text>
	<text transform="matrix(1 0 0 1 149 215.7533)" class="st16 st17">знание английского языка Intermediate</text>
	<text transform="matrix(1 0 0 1 149 239.7533)" class="st16 st17">опыт работы по специальности от 2 лет</text>
	<text transform="matrix(1 0 0 1 149 263.7533)" class="st16 st17">опыт работы с Java EE технологиями</text>
	<text transform="matrix(1 0 0 1 149 287.7533)" class="st16 st17">уверенное знание Java EE технологий: Servlets, JDBC</text>
	<text transform="matrix(1 0 0 1 127.0833 145.433)" class="st16 st30">Мы с вами сработаемся, если у вас есть: </text>
	<g>
		<circle class="st15" cx="134" cy="187.3" r="5"/>
		<circle class="st15" cx="134" cy="210.8" r="5"/>
		<circle class="st15" cx="134" cy="233.8" r="5"/>
		<circle class="st15" cx="134" cy="259.8" r="5"/>
		<circle class="st15" cx="134" cy="283.8" r="5"/>
	</g>
	<text transform="matrix(1 0 0 1 492.9053 92.8)" class="st16 st31">JAVA Developers</text>
</g>
<g id="QAENGGROUP" class="st32">
	<text transform="matrix(1 0 0 1 633.6455 192)" class="st16 st17">Анализ требований и поиск ошибок</text>
	<text transform="matrix(1 0 0 1 633.6455 216)" class="st16 st17">Разработка тестовых сценариев</text>
	<text transform="matrix(1 0 0 1 633.6455 240)" class="st16 st17">Выполнение различных тестовых активностей</text>
	<text transform="matrix(1 0 0 1 633.6455 264)" class="st16 st17">Тестирование мобильных и WEB приложений</text>
	<text transform="matrix(1 0 0 1 619.9167 147.563)" class="st16 st30">Вам предстоит: </text>
	<g>
		<circle class="st15" cx="621" cy="187.3" r="5"/>
		<circle class="st15" cx="621" cy="211.8" r="5"/>
		<circle class="st15" cx="621" cy="234.8" r="5"/>
		<circle class="st15" cx="621" cy="257.8" r="5"/>
	</g>
	<text transform="matrix(1 0 0 1 149 191.7533)" class="st16 st17">техническое образование</text>
	<text transform="matrix(1 0 0 1 149 215.7533)" class="st16 st17">знание английского языка Intermediate</text>
	<text transform="matrix(1 0 0 1 149 239.7533)" class="st16 st17">опыт работы по QA инженером от 2 лет</text>
	<text transform="matrix(1 0 0 1 149 263.7533)" class="st16 st17">опыт работы с тестовыми инструментами</text>
	<text transform="matrix(1 0 0 1 127.0833 145.433)" class="st16 st30">Мы с вами сработаемся, если у вас есть: </text>
	<g>
		<circle class="st15" cx="134" cy="187.3" r="5"/>
		<circle class="st15" cx="134" cy="210.8" r="5"/>
		<circle class="st15" cx="134" cy="234.8" r="5"/>
		<circle class="st15" cx="134" cy="257.8" r="5"/>
	</g>
	<text transform="matrix(1 0 0 1 492.9053 92.8)" class="st16 st31">QA Engineers</text>
</g>
<g id="XMLDEVGROUP" class="st32">
	<text transform="matrix(1 0 0 1 633.6455 192)" class="st16 st17">производство обучающих курсов на основе XML</text>
	<text transform="matrix(1 0 0 1 633.6455 216)" class="st16 st17">правка и доводка XML</text>
	<text transform="matrix(1 0 0 1 633.6455 240)" class="st16 st17">визуализация XML с помощью XSLT/CSS</text>
	<text transform="matrix(1 0 0 1 619.9167 147.563)" class="st16 st30">Вам предстоит: </text>
	<g>
		<circle class="st15" cx="621" cy="187.3" r="5"/>
		<circle class="st15" cx="621" cy="211.8" r="5"/>
		<circle class="st15" cx="621" cy="234.8" r="5"/>
	</g>
	<text transform="matrix(1 0 0 1 149 191.7533)" class="st16 st17">техническое образование</text>
	<text transform="matrix(1 0 0 1 149 215.7533)" class="st16 st17">знание английского языка Intermediate</text>
	<text transform="matrix(1 0 0 1 149 239.7533)" class="st16 st17">опыт работы по специальности от 2 лет</text>
	<text transform="matrix(1 0 0 1 149 263.7533)" class="st16 st17">опыт работы с XML/XSLT технологиями</text>
	<text transform="matrix(1 0 0 1 127.0833 145.433)" class="st16 st30">Мы с вами сработаемся, если у вас есть: </text>
	<g>
		<circle class="st15" cx="134" cy="187.3" r="5"/>
		<circle class="st15" cx="134" cy="210.8" r="5"/>
		<circle class="st15" cx="134" cy="233.8" r="5"/>
		<circle class="st15" cx="134" cy="259.8" r="5"/>

	</g>
	<text transform="matrix(1 0 0 1 492.9053 92.8)" class="st16 st31">XML Developers</text>
</g>
<g id="UIDESIGNGROUP" class="st32">
	<text transform="matrix(1 0 0 1 633.6455 192)" class="st16 st17">разработка лучших в отрасли информационных систем</text>
	<text transform="matrix(1 0 0 1 633.6455 216)" class="st16 st17">модернизация экосистемы приложений компании</text>
	<text transform="matrix(1 0 0 1 633.6455 240)" class="st16 st17">активное участие в развитии команды</text>
	<text transform="matrix(1 0 0 1 619.9167 147.563)" class="st16 st30">Вам предстоит: </text>
	<g>
		<circle class="st15" cx="621" cy="187.3" r="5"/>
		<circle class="st15" cx="621" cy="211.8" r="5"/>
		<circle class="st15" cx="621" cy="234.8" r="5"/>
	</g>
	<text transform="matrix(1 0 0 1 149 191.7533)" class="st16 st17">техническое образование</text>
	<text transform="matrix(1 0 0 1 149 215.7533)" class="st16 st17">знание английского языка Intermediate</text>
	<text transform="matrix(1 0 0 1 149 239.7533)" class="st16 st17">опыт работы по специальности от 2 лет</text>
	<text transform="matrix(1 0 0 1 149 263.7533)" class="st16 st17">опыт Front-End разработки</text>
	<text transform="matrix(1 0 0 1 149 287.7533)" class="st16 st17">уверенное знание Java Script,навыки CSS, HTML;</text>
	<text transform="matrix(1 0 0 1 127.0833 145.433)" class="st16 st30">Мы с вами сработаемся, если у вас есть: </text>
	<g>
		<circle class="st15" cx="134" cy="187.3" r="5"/>
		<circle class="st15" cx="134" cy="210.8" r="5"/>
		<circle class="st15" cx="134" cy="233.8" r="5"/>
		<circle class="st15" cx="134" cy="259.8" r="5"/>
		<circle class="st15" cx="134" cy="283.8" r="5"/>
	</g>
	<text transform="matrix(1 0 0 1 492.9053 92.8)" class="st16 st31">UI Designers</text>
</g>
</svg>
