<?xml version="1.0" encoding="utf-8"?>
<!-- Generator: Adobe Illustrator 19.0.0, SVG Export Plug-In . SVG Version: 6.00 Build 0)  -->
<svg version="1.1" id="WileyHistory" xmlns="http://www.w3.org/2000/svg" xmlns:xlink="http://www.w3.org/1999/xlink" x="0px"
	 y="0px" viewBox="64 37 740 829" style="enable-background:new 64 37 740 829;" xml:space="preserve">
<style type="text/css">
	.st0{opacity:0.35;}
	.st1{fill:#A2A2A3;}
	.st2{opacity:0.38;}
	.st3{opacity:0.51;fill:#4F4F4F;enable-background:new    ;}
	.st4{opacity:0.53;fill:#4F4F4F;enable-background:new    ;}
	.st5{opacity:0.66;fill:#4F4F4F;enable-background:new    ;}
	.st6{opacity:0.52;fill:#4F4F4F;enable-background:new    ;}
	.st7{opacity:0.46;fill:#4F4F4F;enable-background:new    ;}
	.st8{opacity:0.55;fill:#4F4F4F;enable-background:new    ;}
	.st9{opacity:0.49;fill:#4F4F4F;enable-background:new    ;}
	.st10{fill:#4F4F4F;stroke:#000000;stroke-miterlimit:10;}
	.st11{opacity:0.63;fill:#4F4F4F;stroke:#6D6C6D;stroke-width:5;stroke-miterlimit:10;enable-background:new    ;}
	.st12{opacity:0.6;fill:#4F4F4F;stroke:#000000;stroke-miterlimit:10;enable-background:new    ;}
	.st13{opacity:0.37;fill:#4F4F4F;stroke:#000000;stroke-width:4;stroke-miterlimit:10;enable-background:new    ;}
	.st14{opacity:0.3;fill:#4F4F4F;stroke:#000000;stroke-width:4;stroke-miterlimit:10;enable-background:new    ;}
	.st15{opacity:0.54;fill:#4F4F4F;stroke:#515051;stroke-miterlimit:10;enable-background:new    ;}
	.st16{opacity:0.57;fill:#4F4F4F;enable-background:new    ;}
	.st17{opacity:0.53;fill:none;stroke:#7C7C7C;stroke-width:2;stroke-miterlimit:10;enable-background:new    ;}
	.st18{fill:#C8AEB8;}
	.st19{opacity:0.42;}
	.st20{fill:#C9C9C9;}
	.st21{fill:#A4A4A5;}
	.st22{fill:#BFBFBF;}
	.st23{fill:#EDEBEC;stroke:#474646;stroke-miterlimit:10;}
	.st24{fill:#EDEBEC;}
	.st25{fill:#EDEBEC;stroke:#565656;stroke-miterlimit:10;}
	.st26{fill:none;}
	.st27{font-family:'OpenSans';}
	.st28{font-size:14px;}
	.st29{letter-spacing:16.7;}
	.st30{letter-spacing:1.9;}
	.st31{letter-spacing:2.8;}
	.st32{fill:none;stroke:#F2F264;stroke-miterlimit:10;}
	.st33{fill:none;stroke:#F2F264;stroke-miterlimit:10;stroke-dasharray:1.9466,1.9466;}
	.st34{fill:none;stroke:#2132AD;stroke-width:3;stroke-miterlimit:10;}
	.st35{fill:none;stroke:url(#SVGID_1_);stroke-width:3;stroke-miterlimit:10;}
	.st36{fill:none;stroke:url(#SVGID_2_);stroke-width:3;stroke-miterlimit:10;}
	.st37{fill:none;stroke:url(#SVGID_3_);stroke-width:3;stroke-miterlimit:10;}
	.st38{fill:#FF0000;stroke:#2132AD;stroke-miterlimit:10;}
	.st39{fill:#E82121;stroke:#2132AD;stroke-miterlimit:10;}
	.st40{fill:none;stroke:#2132AD;stroke-width:2;stroke-miterlimit:10;}
	.st41{stroke:#2132AD;stroke-width:2;stroke-miterlimit:10;}
	.st42{opacity:0.24;fill:none;stroke:#E5E5E5;stroke-miterlimit:10;enable-background:new    ;}
	.st43{opacity:0.24;fill:none;stroke:#EAEAEA;stroke-miterlimit:10;enable-background:new    ;}
	.st44{opacity:0.24;fill:none;stroke:#BCBBBB;stroke-miterlimit:10;enable-background:new    ;}
	.st45{fill:#0C96A8;}
	.st46{font-family:'Verdana-Bold';}
	.st47{font-size:24px;}
	.st48{fill:#12ABB2;}
	.st49{fill:#F67906;}
	.st50{fill:url(#SVGID_4_);}
	.st51{fill:#3796D8;}
	.st52{fill:#A20041;}
	.st53{fill:#F25407;}
	.st54{fill:#A1D8CE;}
	.st55{fill:#FFFFFF;}
	.st56{fill:none;stroke:#FFFFFF;stroke-width:2;stroke-miterlimit:10;}
	.st57{fill:#8CCA82;}
	.st58{fill:none;stroke:#FFFFFF;stroke-miterlimit:10;}
	.st59{fill:none;stroke:#ABABAB;stroke-miterlimit:10;stroke-dasharray:2,2;}
	.st60{fill:none;stroke:#1CA4A9;stroke-width:6;stroke-miterlimit:10;}
	.st61{fill:none;stroke:#F2F264;stroke-miterlimit:10;stroke-dasharray:2;}
	.st62{opacity:0.42;fill:none;stroke:#F2F264;stroke-miterlimit:10;stroke-dasharray:2;enable-background:new    ;}
	.st63{opacity:0.44;fill:none;stroke:#F2F264;stroke-miterlimit:10;stroke-dasharray:2;enable-background:new    ;}
	.st64{fill:none;stroke:#FFFFFF;stroke-width:3;stroke-miterlimit:10;}
	.st65{fill:none;stroke:url(#SVGID_5_);stroke-width:3;stroke-miterlimit:10;}
	.st66{opacity:0.61;fill:none;stroke:#F2F264;stroke-miterlimit:10;stroke-dasharray:2;enable-background:new    ;}
	.st67{fill:#12ABB2;fill-opacity:0;}
	.st68{font-size:18px;}
	.st69{letter-spacing:5;}
	.st70{letter-spacing:4;}
	.st71{letter-spacing:3;}
	.st72{letter-spacing:13;}
	.st73{letter-spacing:17;}
	.st74{font-size:21px;}
	.st75{font-family:'ArialMT';}
	.st76{font-size:12px;}
</style>
<g class="st0">
	<rect x="104.1" y="320.2" class="st1" width="38.6" height="202"/>
	<g>
		<path class="st1" d="M123.3,249.2c8.2,17.1,15,41.6,19.5,70.8"/>
		<path class="st1" d="M123.6,249.7c-8.2,17.1-15,41.6-19.5,70.8"/>
		<polyline class="st1" points="123.6,249.2 123.6,320.2 104.1,320.2 		"/>
		<polyline class="st1" points="123.5,249.2 123.5,320.2 143,320.2 		"/>
	</g>
	<polyline class="st1" points="161.8,491.2 142.7,491.2 142.7,464.7 	"/>
	<polyline class="st1" points="85.8,491.2 104.8,491.2 104.8,464.7 	"/>
	<polyline class="st1" points="142.7,522.2 142.7,491.2 161.8,491.2 161.8,542.7 152.3,542.7 	"/>
	<polyline class="st1" points="104.8,522.2 104.8,491.2 85.8,491.2 85.8,542.7 95.3,542.7 	"/>
</g>
<g class="st2">
	<polyline class="st3" points="646.8,224.8 652.8,224.8 652.8,154.7 	"/>
	<polyline class="st4" points="799.3,224.8 793.8,224.8 793.8,153.6 	"/>
	<rect x="646.8" y="224.8" class="st5" width="152.5" height="34.7"/>
	<polyline class="st5" points="646.8,224.8 646.8,259.5 640.3,259.5 	"/>
	<rect x="652.8" y="154.7" class="st6" width="140.8" height="70.1"/>
	<rect x="652.8" y="96.1" class="st7" width="140.8" height="58.6"/>
	<polyline class="st8" points="723.3,55 723.3,96.1 685.8,96.1 	"/>
	<polyline class="st8" points="760.8,96.1 723.3,96.1 723.3,55 	"/>
	<polyline class="st9" points="648.3,136.6 652.8,136.6 652.8,100.3 651.3,100.3 	"/>
	<polyline class="st6" points="648.3,136.6 652.8,136.6 652.8,154.7 	"/>
	<polyline class="st9" points="798.3,136.6 793.8,136.6 793.8,100.3 795.3,100.3 	"/>
	<polyline class="st6" points="798.3,136.6 793.8,136.6 793.8,154.7 	"/>
	<ellipse class="st10" cx="722.6" cy="199.8" rx="8" ry="8.3"/>
	<rect x="714.6" y="199.8" class="st10" width="16" height="17.6"/>
	<path class="st11" d="M702.1,232.5c4.3-7.6,12-12.6,20.8-12.6c8.9,0,16.6,5.2,20.9,12.9"/>
	<rect x="702.1" y="232.5" class="st12" width="41.7" height="26.9"/>
	<path class="st10" d="M741.4,251.2c0-9.2-8.2-16.7-18.2-16.7S705,242,705,251.2"/>
	<rect x="704.9" y="251.2" class="st10" width="36.5" height="8.3"/>
	<path class="st13" d="M706.6,199.8c0-9.2,7.3-16.7,16.3-16.7s16.3,7.5,16.3,16.7"/>
	<g>
		<path class="st10" d="M682.9,185.1c0.8-1.7,2.3-2.9,4-2.9s3.2,1.2,4,2.9"/>
		<rect x="682.9" y="185.1" class="st10" width="8" height="14.7"/>
		<path class="st14" d="M678.8,188.2c0-5.1,3.6-9.3,8.1-9.3s8.1,4.2,8.1,9.3"/>
	</g>
	<g>
		<path class="st10" d="M755.3,185.5c0.8-1.7,2.3-2.9,4-2.9s3.2,1.2,4,2.9"/>
		<rect x="755.3" y="185.5" class="st10" width="8" height="14.7"/>
		<path class="st14" d="M751.3,188.6c0-5.1,3.6-9.3,8.1-9.3s8.1,4.2,8.1,9.3"/>
	</g>
	<g>
		<path class="st10" d="M670.8,136.3c0.7-2,2-3.3,3.5-3.3s2.8,1.3,3.5,3.3"/>
		<rect x="670.8" y="136.3" class="st10" width="6.9" height="16.5"/>
		<path class="st15" d="M665.6,137.5c0-4.8,3.9-8.6,8.6-8.6s8.6,3.9,8.6,8.6"/>
	</g>
	<g>
		<path class="st10" d="M690,136.3c0.7-2,2-3.3,3.5-3.3s2.8,1.3,3.5,3.3"/>
		<rect x="690" y="136.3" class="st10" width="6.9" height="16.5"/>
		<path class="st15" d="M684.8,137.5c0-4.8,3.9-8.6,8.6-8.6s8.6,3.9,8.6,8.6"/>
	</g>
	<g>
		<path class="st10" d="M709.5,136.3c0.7-2,2-3.3,3.5-3.3s2.8,1.3,3.5,3.3"/>
		<rect x="709.5" y="136.3" class="st10" width="6.9" height="16.5"/>
		<path class="st15" d="M704.3,137.5c0-4.8,3.9-8.6,8.6-8.6c4.8,0,8.6,3.9,8.6,8.6"/>
	</g>
	<g>
		<path class="st10" d="M728.6,136.3c0.7-2,2-3.3,3.5-3.3s2.8,1.3,3.5,3.3"/>
		<rect x="728.6" y="136.3" class="st10" width="6.9" height="16.5"/>
		<path class="st15" d="M723.5,137.5c0-4.8,3.9-8.6,8.6-8.6s8.6,3.9,8.6,8.6"/>
	</g>
	<g>
		<path class="st10" d="M747.9,136.3c0.7-2,2-3.3,3.5-3.3s2.8,1.3,3.5,3.3"/>
		<rect x="747.9" y="136.3" class="st10" width="6.9" height="16.5"/>
		<path class="st15" d="M742.8,137.5c0-4.8,3.9-8.6,8.6-8.6s8.6,3.9,8.6,8.6"/>
	</g>
	<g>
		<path class="st10" d="M767.3,136.3c0.7-2,2-3.3,3.5-3.3s2.8,1.3,3.5,3.3"/>
		<rect x="767.3" y="136.3" class="st10" width="6.9" height="16.5"/>
		<path class="st15" d="M762.1,137.5c0-4.8,3.9-8.6,8.6-8.6s8.6,3.9,8.6,8.6"/>
	</g>
	<rect x="674.9" y="96.3" class="st10" width="1.9" height="13.9"/>
	<rect x="693.4" y="96.1" class="st10" width="1.9" height="13.9"/>
	<rect x="712.9" y="96.1" class="st10" width="1.9" height="13.9"/>
	<rect x="731.1" y="96.1" class="st10" width="1.9" height="13.9"/>
	<rect x="750.4" y="96.1" class="st10" width="1.9" height="13.9"/>
	<rect x="768.8" y="96.3" class="st10" width="1.9" height="13.9"/>
	<g>
		<rect x="664.3" y="109.6" class="st10" width="3.6" height="8.4"/>
		<rect x="665.4" y="106.7" class="st10" width="1.3" height="2.9"/>
		<rect x="665.6" y="105.5" class="st10" width="0.7" height="1.2"/>
	</g>
	<g>
		<rect x="683.3" y="109.6" class="st10" width="3.6" height="8.4"/>
		<rect x="684.3" y="106.7" class="st10" width="1.3" height="2.9"/>
		<rect x="684.6" y="105.5" class="st10" width="0.7" height="1.2"/>
	</g>
	<g>
		<rect x="702.5" y="109.6" class="st10" width="3.6" height="8.4"/>
		<rect x="703.6" y="106.7" class="st10" width="1.3" height="2.9"/>
		<rect x="703.9" y="105.5" class="st10" width="0.7" height="1.2"/>
	</g>
	<g>
		<rect x="721.3" y="109.6" class="st10" width="3.6" height="8.4"/>
		<rect x="722.3" y="106.7" class="st10" width="1.3" height="2.9"/>
		<rect x="722.6" y="105.5" class="st10" width="0.7" height="1.2"/>
	</g>
	<g>
		<rect x="740.3" y="109.6" class="st10" width="3.6" height="8.4"/>
		<rect x="741.3" y="106.7" class="st10" width="1.3" height="2.9"/>
		<rect x="741.6" y="105.5" class="st10" width="0.7" height="1.2"/>
	</g>
	<g>
		<rect x="759.3" y="109.6" class="st10" width="3.6" height="8.4"/>
		<rect x="760.3" y="106.7" class="st10" width="1.3" height="2.9"/>
		<rect x="760.5" y="105.5" class="st10" width="0.7" height="1.2"/>
	</g>
	<g>
		<rect x="777.6" y="109.6" class="st10" width="3.6" height="8.4"/>
		<rect x="778.8" y="106.7" class="st10" width="1.3" height="2.9"/>
		<rect x="779" y="105.5" class="st10" width="0.7" height="1.2"/>
	</g>
	<path class="st16" d="M725.3,50.8h-3.6c-1.4,0-2.5-1.1-2.5-2.5v-5.8c0-1.4,1.1-2.5,2.5-2.5h3.6c1.4,0,2.5,1.1,2.5,2.5v5.8
		C727.8,49.7,726.6,50.8,725.3,50.8z"/>
	<line class="st17" x1="723.3" y1="55.2" x2="723.3" y2="50.8"/>
	<polyline class="st3" points="651.3,100.3 652.8,100.3 652.8,96.1 649.9,96.1 	"/>
	<polyline class="st3" points="795.3,100.3 793.8,100.3 793.8,96.1 796.6,96.1 	"/>
	<polyline class="st5" points="799.3,224.6 799.3,259.5 805.8,259.5 	"/>
</g>
<path class="st18" d="M177.6-151.1"/>
<script  type="text/ecmascript">
	<![CDATA[

	function SelectEvent(evt,event) {
	// Here the Polygon element is taken reverted to text and the "Poly" text is removed from ID name to ge the EventID
		var HistoryEvtCIRCLE = evt.target.id;
		var lengthIdCIRCLE = HisroryEvtCIRCLE.length;
		var lengthIdEvent = lengthIdCIRCLE - 6;
		var eventId = HistoryEvtCIRCLE.substr (0,lengthIdEvent);
		var HistoryEvtGROUP = this.document.getElementById(eventId);
		var ArrayOfEvents = ["1993GROUP", "2000GROUP", "2005GROUP", "2010GROUP", "2017GROUP"];
		if (event == "mouseover")
		HistoryEvtGROUP.style.opacity = 1;
		for (var i = 0; i < ArrayOfEvents.length ; i++)
    	{
				  var varWileyEvent = this.document.getElementById(ArrayOfEvents[i]);
				  if (varWileyEvent !== vastage)
				  {varWileyEvent.style.opacity = 0.7;}


	    }
	}
    function EventClick(evt)
    {
    	var vastagePoly = evt.target.id;
		var lengthIdPoly = vastagePoly.length;
		var lengthIdText = lengthIdPoly - 4;
		var TextId = vastagePoly.substr (0,lengthIdText);
//		var vastage = this.document.getElementById(TextId);
		var ArrayOfTexts = ["Revenue18blnText", "JohnWileyEpoch1826Text", "FirstRecognition1961Text", "GlobalMarket1895Text", "Revenue1mln1929Text", "Revenue6mln1950Text",
					"OfficeLondon1960Text", "FirstRecognition1961Text", "Revenue100mln1980Text", "JohnWileySons1876Text", "FirstBookShop1814Text", "ScienceFocus1848Text", "Blossom193256Text",
					"OfficeOAE201012Text", "Foundation1807Text", "OfficesJapan1970Text", "OfficesAustral196070Text", "WileyShares1962Text", "NewBusiness1982Text"];
		var vastageText = TextId + "Text";
		var vastage = this.document.getElementById(vastageText);
        vastage.style.visibility = "visible";
		vastage.style.opacity = "1";
		vastage.style.transition = "opacity 1s, visibility 0s";


		for (var i = 0; i < ArrayOfTexts.length ; i++)
    	{
				  var varWileyText = this.document.getElementById(ArrayOfTexts[i]);
				  if (varWileyText !== vastage)
				  {varWileyText.style.visibility = "hidden";
				   varWileyText.style.opacity = 0;
				   vastage.style.transition = "opacity 0.25s visibility 0s 0.25s";
				  }
        }
   }
		
		
		
		]]>
</script>
<g class="st19">
	<rect x="573.3" y="395.9" class="st20" width="226.4" height="149"/>
	<rect x="514.2" y="359.7" class="st21" width="59" height="185.3"/>
	<rect x="267.6" y="395.9" class="st22" width="246.6" height="149"/>
	<g>
		<g>
			<rect x="699.5" y="489.1" class="st23" width="23.9" height="8.6"/>
			<rect x="723.5" y="489.1" class="st23" width="23.9" height="8.6"/>
			<rect x="699.5" y="497.7" class="st23" width="16" height="25.5"/>
			<rect x="715.5" y="497.7" class="st23" width="16" height="25.5"/>
			<rect x="731.5" y="497.7" class="st23" width="16" height="25.5"/>
		</g>
		<g>
			<rect x="637.1" y="489.1" class="st23" width="23.9" height="8.6"/>
			<rect x="661" y="489.1" class="st23" width="23.9" height="8.6"/>
			<rect x="637.1" y="497.7" class="st23" width="16" height="25.5"/>
			<rect x="653" y="497.7" class="st23" width="16" height="25.5"/>
			<rect x="669" y="497.7" class="st23" width="16" height="25.5"/>
		</g>
		<g>
			<rect x="574.7" y="489.1" class="st23" width="23.9" height="8.6"/>
			<rect x="598.6" y="489.1" class="st23" width="23.9" height="8.6"/>
			<rect x="574.7" y="497.7" class="st23" width="16" height="25.5"/>
			<rect x="590.6" y="497.7" class="st23" width="16" height="25.5"/>
			<rect x="606.6" y="497.7" class="st23" width="16" height="25.5"/>
		</g>
		<g>
			<rect x="699.5" y="433.1" class="st23" width="23.9" height="8.6"/>
			<rect x="723.5" y="433.1" class="st23" width="23.9" height="8.6"/>
			<rect x="699.5" y="441.8" class="st23" width="16" height="25.5"/>
			<rect x="715.5" y="441.8" class="st23" width="16" height="25.5"/>
			<rect x="731.5" y="441.8" class="st23" width="16" height="25.5"/>
		</g>
		<g>
			<rect x="637.1" y="433.1" class="st23" width="23.9" height="8.6"/>
			<rect x="661" y="433.1" class="st23" width="23.9" height="8.6"/>
			<rect x="637.1" y="441.8" class="st23" width="16" height="25.5"/>
			<rect x="653" y="441.8" class="st23" width="16" height="25.5"/>
			<rect x="669" y="441.8" class="st23" width="16" height="25.5"/>
		</g>
		<g>
			<rect x="574.7" y="433.1" class="st23" width="23.9" height="8.6"/>
			<rect x="598.6" y="433.1" class="st23" width="23.9" height="8.6"/>
			<rect x="574.7" y="441.8" class="st23" width="16" height="25.5"/>
			<rect x="590.6" y="441.8" class="st23" width="16" height="25.5"/>
			<rect x="606.6" y="441.8" class="st23" width="16" height="25.5"/>
		</g>
	</g>
	<g>
		<rect x="458.6" y="487.2" class="st23" width="23.9" height="8.6"/>
		<rect x="482.5" y="487.2" class="st23" width="23.9" height="8.6"/>
		<rect x="458.6" y="495.7" class="st23" width="16" height="25.5"/>
		<rect x="474.5" y="495.7" class="st23" width="16" height="25.5"/>
		<rect x="490.5" y="495.7" class="st23" width="16" height="25.5"/>
	</g>
	<g>
		<rect x="396.2" y="487.2" class="st23" width="23.9" height="8.6"/>
		<rect x="420.1" y="487.2" class="st23" width="23.9" height="8.6"/>
		<rect x="396.2" y="495.7" class="st23" width="16" height="25.5"/>
		<rect x="412.1" y="495.7" class="st23" width="16" height="25.5"/>
		<rect x="428.1" y="495.7" class="st23" width="16" height="25.5"/>
	</g>
	<g>
		<rect x="333.7" y="487.2" class="st23" width="23.9" height="8.6"/>
		<rect x="357.6" y="487.2" class="st23" width="23.9" height="8.6"/>
		<rect x="333.7" y="495.7" class="st23" width="16" height="25.5"/>
		<rect x="349.7" y="495.7" class="st23" width="16" height="25.5"/>
		<rect x="365.6" y="495.7" class="st23" width="16" height="25.5"/>
	</g>
	<g>
		<rect x="458.6" y="431.2" class="st23" width="23.9" height="8.6"/>
		<rect x="482.5" y="431.2" class="st23" width="23.9" height="8.6"/>
		<rect x="458.6" y="439.9" class="st23" width="16" height="25.5"/>
		<rect x="474.5" y="439.9" class="st23" width="16" height="25.5"/>
		<rect x="490.5" y="439.9" class="st23" width="16" height="25.5"/>
	</g>
	<g>
		<rect x="396.2" y="431.2" class="st23" width="23.9" height="8.6"/>
		<rect x="420.1" y="431.2" class="st23" width="23.9" height="8.6"/>
		<rect x="396.2" y="439.9" class="st23" width="16" height="25.5"/>
		<rect x="412.1" y="439.9" class="st23" width="16" height="25.5"/>
		<rect x="428.1" y="439.9" class="st23" width="16" height="25.5"/>
	</g>
	<g>
		<rect x="333.7" y="431.2" class="st23" width="23.9" height="8.6"/>
		<rect x="357.6" y="431.2" class="st23" width="23.9" height="8.6"/>
		<rect x="333.7" y="439.9" class="st23" width="16" height="25.5"/>
		<rect x="349.7" y="439.9" class="st23" width="16" height="25.5"/>
		<rect x="365.6" y="439.9" class="st23" width="16" height="25.5"/>
	</g>
	<g>
		<rect x="271.6" y="487.3" class="st23" width="23.9" height="8.6"/>
		<rect x="295.6" y="487.3" class="st23" width="23.9" height="8.6"/>
		<rect x="271.6" y="495.9" class="st23" width="16" height="25.5"/>
		<rect x="287.6" y="495.9" class="st23" width="16" height="25.5"/>
		<rect x="303.6" y="495.9" class="st23" width="16" height="25.5"/>
	</g>
	<g>
		<rect x="271.6" y="431.4" class="st23" width="23.9" height="8.6"/>
		<rect x="295.6" y="431.4" class="st23" width="23.9" height="8.6"/>
		<rect x="271.6" y="440.1" class="st23" width="16" height="25.5"/>
		<rect x="287.6" y="440.1" class="st23" width="16" height="25.5"/>
		<rect x="303.6" y="440.1" class="st23" width="16" height="25.5"/>
	</g>
	<rect x="520.1" y="375.2" class="st24" width="20.8" height="54"/>
	<g>
		<rect x="520.3" y="375.2" class="st25" width="10.4" height="18.7"/>
		<rect x="530.7" y="375.2" class="st25" width="10.4" height="18.7"/>
		<rect x="520.2" y="394.1" class="st25" width="10.4" height="16.4"/>
		<rect x="530.6" y="394.1" class="st25" width="10.4" height="16.4"/>
		<rect x="520.2" y="410.5" class="st25" width="10.4" height="18.7"/>
		<rect x="530.6" y="410.5" class="st25" width="10.4" height="18.7"/>
	</g>
	<g>
		<rect x="546.1" y="375.3" class="st25" width="10.4" height="18.7"/>
		<rect x="556.5" y="375.3" class="st25" width="10.4" height="18.7"/>
		<rect x="545.9" y="394.2" class="st25" width="10.4" height="16.4"/>
		<rect x="556.5" y="394.2" class="st25" width="10.4" height="16.4"/>
		<rect x="545.9" y="410.7" class="st25" width="10.4" height="18.7"/>
		<rect x="556.5" y="410.7" class="st25" width="10.4" height="18.7"/>
	</g>
	<g>
		<rect x="520.1" y="441.8" class="st25" width="10.4" height="19"/>
		<rect x="530.5" y="441.8" class="st25" width="10.4" height="19"/>
		<rect x="520" y="460.9" class="st25" width="10.4" height="16.7"/>
		<rect x="530.4" y="460.9" class="st25" width="10.4" height="16.7"/>
		<rect x="520" y="477.6" class="st25" width="10.4" height="19"/>
		<rect x="530.4" y="477.6" class="st25" width="10.4" height="19"/>
	</g>
	<g>
		<rect x="546.1" y="441.9" class="st25" width="10.4" height="19"/>
		<rect x="556.5" y="441.9" class="st25" width="10.4" height="19"/>
		<rect x="545.9" y="461" class="st25" width="10.4" height="16.7"/>
		<rect x="556.5" y="461" class="st25" width="10.4" height="16.7"/>
		<rect x="545.9" y="477.7" class="st25" width="10.4" height="19"/>
		<rect x="556.5" y="477.7" class="st25" width="10.4" height="19"/>
	</g>
	<rect x="545.9" y="513.2" class="st25" width="21" height="27.6"/>
	<rect x="556.5" y="513.2" class="st25" width="10.4" height="27.6"/>
</g>
<rect x="67.8" y="54.4" class="st26" width="454.8" height="119.1"/>
<text transform="matrix(1.08 0 0 1 94.8495 65.04)" class="st27 st28">Дочерняя</text>
<text transform="matrix(1.08 0 0 1 167.6415 65.04)" class="st27 st28"> </text>
<text transform="matrix(1.08 0 0 1 171.0976 65.04)" class="st27 st28">компания</text>
<text transform="matrix(1.08 0 0 1 244.5375 65.04)" class="st27 st28"> </text>
<text transform="matrix(1.08 0 0 1 247.9935 65.04)" class="st27 st28">Wiley</text>
<text transform="matrix(1.08 0 0 1 285.7934 65.04)" class="st27 st28"> </text>
<text transform="matrix(1.08 0 0 1 289.2494 65.04)" class="st27 st28">в</text>
<text transform="matrix(1.08 0 0 1 297.8896 65.04)" class="st27 st28"> </text>
<text transform="matrix(1.08 0 0 1 301.3456 65.04)" class="st27 st28">России</text>
<text transform="matrix(1.08 0 0 1 353.0775 65.04)" class="st27 st28"> </text>
<text transform="matrix(1.08 0 0 1 356.642 65.04)" class="st27 st28">(ООО</text>
<text transform="matrix(1.08 0 0 1 396.3852 65.04)" class="st27 st28"> </text>
<text transform="matrix(1.08 0 0 1 399.8412 65.04)" class="st27 st28">&quot;Джон</text>
<text transform="matrix(1.08 0 0 1 446.0658 65.04)" class="st27 st28"> </text>
<text transform="matrix(1.08 0 0 1 449.6293 65.04)" class="st27 st28">Вайли</text>
<text transform="matrix(1.08 0 0 1 495.6371 65.04)" class="st27 st28"> </text>
<text transform="matrix(1.08 0 0 1 499.0931 65.04)" class="st27 st28">и </text>
<text transform="matrix(1.08 0 0 1 94.8495 81.8398)" class="st27 st28">Сыновья</text>
<text transform="matrix(1.08 0 0 1 160.7294 81.8398)" class="st27 st28 st29"> </text>
<text transform="matrix(1.08 0 0 1 183.1938 81.8398)" class="st27 st28">Рус»)</text>
<text transform="matrix(1.08 0 0 1 219.1576 81.8398)" class="st27 st28 st29"> </text>
<text transform="matrix(1.08 0 0 1 241.6215 81.8398)" class="st27 st28">была</text>
<text transform="matrix(1.08 0 0 1 279.3134 81.8398)" class="st27 st28 st29"> </text>
<text transform="matrix(1.08 0 0 1 301.8856 81.8398)" class="st27 st28">сформирована</text>
<text transform="matrix(1.08 0 0 1 412.3695 81.8398)" class="st27 st28 st29"> </text>
<text transform="matrix(1.08 0 0 1 434.9418 81.8398)" class="st27 st28">на</text>
<text transform="matrix(1.08 0 0 1 452.8695 81.8398)" class="st27 st28 st29"> </text>
<text transform="matrix(1.08 0 0 1 475.4418 81.8398)" class="st27 st28">базе </text>
<text transform="matrix(1.08 0 0 1 94.8495 98.6401)" class="st27 st28">Представительства</text>
<text transform="matrix(1.08 0 0 1 237.5175 98.6401)" class="st27 st28 st30"> </text>
<text transform="matrix(1.08 0 0 1 243.5653 98.6401)" class="st27 st28">Wiley</text>
<text transform="matrix(1.08 0 0 1 281.2577 98.6401)" class="st27 st28 st30"> </text>
<text transform="matrix(1.08 0 0 1 287.3056 98.6401)" class="st27 st28">в</text>
<text transform="matrix(1.08 0 0 1 295.8373 98.6401)" class="st27 st28 st30"> </text>
<text transform="matrix(1.08 0 0 1 301.8856 98.6401)" class="st27 st28">России,</text>
<text transform="matrix(1.08 0 0 1 357.3978 98.6401)" class="st27 st28 st30"> </text>
<text transform="matrix(1.08 0 0 1 363.4457 98.6401)" class="st27 st28">существовавшего</text>
<text transform="matrix(1.08 0 0 1 495.4213 98.6401)" class="st27 st28 st30"> </text>
<text transform="matrix(1.08 0 0 1 501.4691 98.6401)" class="st27 st28">с </text>
<text transform="matrix(1.08 0 0 1 94.8495 115.4399)" class="st27 st28">2002</text>
<text transform="matrix(1.08 0 0 1 129.4096 115.4399)" class="st27 st28 st31"> </text>
<text transform="matrix(1.08 0 0 1 137.0775 115.4399)" class="st27 st28">года.</text>
<text transform="matrix(1.08 0 0 1 173.6893 115.4399)" class="st27 st28 st31"> </text>
<text transform="matrix(1.08 0 0 1 181.3573 115.4399)" class="st27 st28">Представительство</text>
<text transform="matrix(1.08 0 0 1 324.7816 115.4399)" class="st27 st28 st31"> </text>
<text transform="matrix(1.08 0 0 1 332.3412 115.4399)" class="st27 st28">Wiley,</text>
<text transform="matrix(1.08 0 0 1 373.8138 115.4399)" class="st27 st28 st31"> </text>
<text transform="matrix(1.08 0 0 1 381.4818 115.4399)" class="st27 st28">в</text>
<text transform="matrix(1.08 0 0 1 390.0131 115.4399)" class="st27 st28 st31"> </text>
<text transform="matrix(1.08 0 0 1 397.682 115.4399)" class="st27 st28">свою</text>
<text transform="matrix(1.08 0 0 1 435.1576 115.4399)" class="st27 st28 st31"> </text>
<text transform="matrix(1.08 0 0 1 442.8256 115.4399)" class="st27 st28">очередь, </text>
<text transform="matrix(1.08 0 0 1 94.8495 132.2402)" class="st27 st28">было</text>
<text transform="matrix(1.08 0 0 1 133.2977 132.2402)" class="st27 st28 st30"> </text>
<text transform="matrix(1.08 0 0 1 139.9935 132.2402)" class="st27 st28">сформировано</text>
<text transform="matrix(1.08 0 0 1 251.1254 132.2402)" class="st27 st28 st30"> </text>
<text transform="matrix(1.08 0 0 1 257.8217 132.2402)" class="st27 st28">на</text>
<text transform="matrix(1.08 0 0 1 275.8578 132.2402)" class="st27 st28 st30"> </text>
<text transform="matrix(1.08 0 0 1 282.5536 132.2402)" class="st27 st28">основе</text>
<text transform="matrix(1.08 0 0 1 334.6098 132.2402)" class="st27 st28 st30"> </text>
<text transform="matrix(1.08 0 0 1 341.3051 132.2402)" class="st27 st28">английской</text>
<text transform="matrix(1.08 0 0 1 427.3812 132.2402)" class="st27 st28 st30"> </text>
<text transform="matrix(1.08 0 0 1 433.9691 132.2402)" class="st27 st28">компании </text>
<text transform="matrix(1.08 0 0 1 94.8495 149.04)" class="st27 st28">«Марис Технолоджис», работавшей в России с 1992 года</text>
<g>
	<g id="EVENTGROUP">
		<g>
			<path class="st26" d="M359.8,491"/>
		</g>
		<g>
			<g>
				<path class="st32" d="M276.1,438.6c0.3-0.1,0.7-0.1,1-0.2"/>
				<path class="st33" d="M279,438c3.5-0.6,7-1,10.6-1.1"/>
				<path class="st32" d="M290.6,436.9c0.3,0,0.7,0,1,0"/>
			</g>
		</g>
		<g>
			<line class="st34" x1="263.8" y1="380.1" x2="224.1" y2="456.9"/>
			<path class="st34" d="M224.9,454.8c-9.1,19.5-29.1,33.1-52.3,33.1"/>
			
				<linearGradient id="SVGID_1_" gradientUnits="userSpaceOnUse" x1="85.85" y1="483.9" x2="85.85" y2="483.9" gradientTransform="matrix(1 0 0 1 0 4)">
				<stop  offset="0" style="stop-color:#A2A2A3;stop-opacity:0.4"/>
				<stop  offset="0.8768" style="stop-color:#2132AD"/>
			</linearGradient>
			<path class="st35" d="M85.8,487.9"/>
			
				<linearGradient id="SVGID_2_" gradientUnits="userSpaceOnUse" x1="170.65" y1="483.9" x2="170.65" y2="483.9" gradientTransform="matrix(1 0 0 1 0 4)">
				<stop  offset="0" style="stop-color:#A2A2A3;stop-opacity:0.4"/>
				<stop  offset="0.8768" style="stop-color:#2132AD"/>
			</linearGradient>
			<path class="st36" d="M170.6,487.9"/>
			<line class="st34" x1="313.6" y1="348.2" x2="448.1" y2="344.6"/>
			<path class="st34" d="M262.8,381.6c9.1-19.5,29.1-33.1,52.3-33.1"/>
			<path class="st34" d="M506.8,300.9c-11.1,25.9-35.8,43.8-64.3,43.8"/>
			<path class="st34" d="M513,288.9c10-19.5,32.1-33.1,57.8-33.1"/>
			<line class="st34" x1="502.5" y1="309.4" x2="513" y2="288.9"/>
			<line class="st34" x1="566.3" y1="255.6" x2="677.8" y2="251.4"/>
			<path class="st34" d="M733.8,208.6c-9.7,25-31.1,42.4-56,42.4"/>
			
				<linearGradient id="SVGID_3_" gradientUnits="userSpaceOnUse" x1="730.751" y1="162.05" x2="770.3489" y2="162.05" gradientTransform="matrix(1 0 0 1 0 4)">
				<stop  offset="0" style="stop-color:#2132AD"/>
				<stop  offset="1" style="stop-color:#FFFFFF"/>
			</linearGradient>
			<line class="st37" x1="732.1" y1="213.6" x2="768.9" y2="118.5"/>
		</g>
		<ellipse class="st38" cx="184.7" cy="485.6" rx="14.1" ry="14.3"/>
		<ellipse class="st38" cx="289" cy="355.9" rx="14.1" ry="14.3"/>
		<ellipse class="st39" cx="480.3" cy="335.2" rx="14.1" ry="14.3"/>
		<ellipse class="st39" cx="718" cy="235.2" rx="14.1" ry="14.3"/>
		<line class="st40" x1="179.7" y1="471.4" x2="172.6" y2="433.8"/>
		<line class="st40" x1="304.5" y1="385.2" x2="295.8" y2="368.2"/>
		<ellipse class="st39" cx="577.1" cy="255.9" rx="14.1" ry="14.3"/>
		<line class="st40" x1="471.1" y1="324.8" x2="452" y2="304"/>
		<line class="st40" x1="577.1" y1="270.1" x2="577.1" y2="300.9"/>
		<line class="st40" x1="708.3" y1="225" x2="686.6" y2="202.3"/>
		<circle class="st41" cx="184.7" cy="485.9" r="7"/>
		<circle class="st41" cx="289" cy="355.9" r="7"/>
		<circle class="st41" cx="480.3" cy="335.2" r="7"/>
		<circle class="st41" cx="577.1" cy="255.5" r="7"/>
		<circle class="st41" cx="718" cy="235.2" r="7"/>
		<line class="st42" x1="336.1" y1="375.9" x2="393.5" y2="453.5"/>
		<line class="st43" x1="352.6" y1="410.1" x2="297.1" y2="482"/>
		<line class="st44" x1="401.1" y1="198.4" x2="339.3" y2="280.6"/>
		<g id="_x31_993GROUP">
			<text transform="matrix(1 0 0 1 130.2274 395.2859)" class="st45 st46 st47">1993</text>
			<g>
				<path class="st48" d="M162.1,322.6c-31.8,0-57.5,25.7-57.5,57.5s25.7,57.5,57.5,57.5s57.5-25.7,57.5-57.5
					S193.9,322.6,162.1,322.6z M161.6,427.9c-22.1,0-40-17.9-40-40s17.9-40,40-40s40,17.9,40,40S183.7,427.9,161.6,427.9z"/>
			</g>
		</g>
		<g id="_x32_000GROUP">
			<text transform="matrix(1 0 0 1 300.54 435.9567)" class="st49 st46 st47">2000</text>
			
				<linearGradient id="SVGID_4_" gradientUnits="userSpaceOnUse" x1="284.193" y1="461.8974" x2="388.107" y2="401.9026" gradientTransform="matrix(1 0 0 1 0 4)">
				<stop  offset="0" style="stop-color:#F67400"/>
				<stop  offset="0.234" style="stop-color:#F67603"/>
				<stop  offset="0.4114" style="stop-color:#F67E0D"/>
				<stop  offset="0.5702" style="stop-color:#F68B1D"/>
				<stop  offset="0.7181" style="stop-color:#F69D34"/>
				<stop  offset="0.8584" style="stop-color:#F6B552"/>
				<stop  offset="0.9914" style="stop-color:#F6D275"/>
				<stop  offset="1" style="stop-color:#F6D478"/>
			</linearGradient>
			<path class="st50" d="M336.1,375.9c-33.1,0-60,26.9-60,60c0,33.1,26.9,60,60,60c33.1,0,60-26.9,60-60
				C396.1,402.8,369.3,375.9,336.1,375.9z M329,465.2c-22.1,0-40-17.9-40-40s17.9-40,40-40c22.1,0,40,17.9,40,40
				C369,447.3,351.1,465.2,329,465.2z"/>
		</g>
		<g id="_x32_005GROUP">
			<text transform="matrix(1 0 0 1 377.6338 275.335)" class="st51 st46 st47">2005</text>
			<path class="st51" d="M401.1,198.4c-35.9,0-65,29.1-65,65s29.1,65,65,65c35.9,0,65-29.1,65-65S437,198.4,401.1,198.4z M410,313.1
				c-24.9,0-45-20.1-45-45s20.1-45,45-45c24.9,0,45,20.1,45,45S434.8,313.1,410,313.1z"/>
		</g>
		<g id="_x32_010GROUP">
			<text transform="matrix(1 0 0 1 547.7275 359.303)" class="st52 st46 st47">2010</text>
			<path class="st52" d="M577.1,300.9c-33.1,0-60,26.9-60,60s26.9,60,60,60s60-26.9,60-60S610.3,300.9,577.1,300.9z M576.1,398.9
				c-24.9,0-45-20.1-45-45s20.1-45,45-45s45,20.1,45,45S601,398.9,576.1,398.9z"/>
		</g>
		<g id="_x32_017GROUP">
			<text transform="matrix(1 0 0 1 611.3274 153.9668)" class="st53 st46 st47">2017</text>
			<path class="st53" d="M637.1,70.9c-41.4,0-75,33.6-75,75s33.6,75,75,75s75-33.6,75-75S678.5,70.9,637.1,70.9z M642.4,211.3
				c-33.1,0-60-26.9-60-60s26.9-60,60-60s60,26.9,60,60S675.5,211.3,642.4,211.3z"/>
		</g>
	</g>
</g>
<g>
	<circle id="XMLID_452_" class="st54" cx="708.3" cy="328.2" r="34.9"/>
	<g id="Layer_2_1_">
		<g>
			<g>
				<path class="st55" d="M697,329.8c0,4.2,2.6,7.7,6.2,9.1v-2.4c-2.4-1.3-4.1-3.8-4.1-6.7c0-4,3-7.1,6.7-7.6v-2.3
					C701,320.6,697,324.8,697,329.8z"/>
				<path class="st55" d="M702.5,341.4c-4.8-1.8-8.3-6.2-8.3-11.5c0-6.5,5.2-11.8,11.8-12.2v-2.2c-7.8,0.5-13.9,6.7-13.9,14.4
					c0,6.4,4.3,11.8,10.2,13.7"/>
			</g>
			<path class="st56" d="M718.6,342.6h-17.5c-3.2,0-5.9,2.8-5.9,6.1v0.4c0,0.4,0,0.8,0.1,1.2h28.9c0.1-0.4,0.1-0.7,0.1-1.2v-0.4
				C724.4,345.2,721.8,342.6,718.6,342.6z"/>
			<line class="st56" x1="710.3" y1="302.7" x2="710.3" y2="308.8"/>
			<path class="st56" d="M714.3,310.2v13.6c0,1.1-0.8,1.9-1.9,1.9h-4c-1.1,0-1.9-0.8-1.9-1.9v-13.6c0-1.1,0.8-1.9,1.9-1.9h4
				C713.3,308.2,714.3,309.1,714.3,310.2z"/>
			<line class="st56" x1="710" y1="325.2" x2="710" y2="329.7"/>
			<path class="st55" d="M715.5,337.4H706l0,0c-1-0.1-1.8-0.4-2.6-0.8v2.4c0.8,0.4,1.8,0.5,2.6,0.6l0,0h9.5c1.3,0,2.4,1.3,2.4,3h1.8
				C719.8,339.8,717.8,337.4,715.5,337.4z"/>
		</g>
	</g>
</g>
<circle id="XMLID_514_" class="st57" cx="489.5" cy="194.6" r="10.5"/>
<g>
	<path class="st58" d="M352.5,200.2L352.5,200.2c-1.3,0-2.4-1.1-2.4-2.4V189c0-1.3,1.1-2.4,2.4-2.4l0,0c1.3,0,2.4,1.1,2.4,2.4v8.8
		C354.8,199.2,353.8,200.2,352.5,200.2z"/>
	<path class="st58" d="M365.6,200L365.6,200c-1.2,0.4-2.6-0.3-3-1.5l-2.7-8.4c-0.4-1.2,0.3-2.6,1.5-3l0,0c1.2-0.4,2.6,0.3,3,1.5
		l2.7,8.4C367.6,198.3,367,199.6,365.6,200z"/>
	<path class="st58" d="M357.3,200.2L357.3,200.2c-1.3,0-2.4-1.1-2.4-2.4V187c0-1.3,1.1-2.4,2.4-2.4l0,0c1.3,0,2.4,1.1,2.4,2.4v10.8
		C359.5,199.2,358.5,200.2,357.3,200.2z"/>
	<path class="st58" d="M368.8,200.5h-21.2c-0.1,0-0.2-0.1-0.2-0.2l0,0c0-0.1,0.1-0.2,0.2-0.2h21.2c0.1,0,0.2,0.1,0.2,0.2l0,0
		C369,200.4,368.8,200.5,368.8,200.5z"/>
	<line class="st58" x1="350.1" y1="189.6" x2="354.6" y2="189.6"/>
	<line class="st58" x1="350.3" y1="198.1" x2="354.8" y2="198.1"/>
	<line class="st58" x1="360.6" y1="191.5" x2="364.8" y2="190.1"/>
	<line class="st58" x1="361" y1="193.2" x2="365.3" y2="191.7"/>
</g>
<path id="XMLID_6_" class="st59" d="M194.7,303.6"/>
<path id="XMLID_5_" class="st59" d="M218.2,273.1"/>
<path id="XMLID_4_" class="st60" d="M165.2,272.9"/>
<path id="XMLID_3_" class="st60" d="M186.9,294.6"/>
<path id="XMLID_2_" class="st60" d="M186.9,294.6"/>
<path id="XMLID_1_" class="st60" d="M208.6,272.9"/>
<path class="st61" d="M333.3,495.9c-7.8-7.1-12.8-17.4-12.8-28.9c0-1.1,0-2.1,0.1-3.1"/>
<path class="st61" d="M368.8,429.2c11.2,2.8,20.5,10.4,25.6,20.6"/>
<line class="st62" x1="375.3" y1="297" x2="375.3" y2="322.8"/>
<line class="st62" x1="375.3" y1="205.1" x2="375.3" y2="239.3"/>
<line class="st63" x1="365.3" y1="273.6" x2="345.3" y2="294.6"/>
<line class="st63" x1="430.3" y1="205.3" x2="413.3" y2="223.1"/>
<path class="st61" d="M658.8,94c-2.1-8.4-5.8-16-10.9-22.7"/>
<path class="st61" d="M584.9,168.6c4.4,1,9,1.5,13.6,1.5c34.2,0,61.9-27.5,61.9-61.5c0-5-0.6-9.9-1.8-14.6"/>
<path class="st61" d="M563,159c6.5,4.5,13.9,7.9,21.9,9.7"/>
<ellipse id="XMLID_512_" class="st57" cx="208.6" cy="226.4" rx="35" ry="35"/>
<g>
	<path class="st64" d="M197,237.6L197,237.6c-2.6,0-4.8-2.2-4.8-4.8v-17.6c0-2.6,2.2-4.8,4.8-4.8l0,0c2.6,0,4.8,2.2,4.8,4.8v17.6
		C201.8,235.6,199.6,237.6,197,237.6z"/>
	<path class="st64" d="M223.4,237.2L223.4,237.2c-2.4,0.8-5.2-0.6-6-3l-5.4-16.8c-0.8-2.4,0.6-5.2,3-6l0,0c2.4-0.8,5.2,0.6,6,3
		l5.4,16.8C227.4,233.8,226,236.4,223.4,237.2z"/>
	<path class="st64" d="M206.6,237.6L206.6,237.6c-2.6,0-4.8-2.2-4.8-4.8v-21.6c0-2.6,2.2-4.8,4.8-4.8l0,0c2.6,0,4.8,2.2,4.8,4.8
		v21.6C211.2,235.6,209.2,237.6,206.6,237.6z"/>
	<path class="st64" d="M229.6,238.2h-42.4c-0.2,0-0.4-0.2-0.4-0.4l0,0c0-0.2,0.2-0.4,0.4-0.4h42.4c0.2,0,0.4,0.2,0.4,0.4l0,0
		C230,238,229.8,238.2,229.6,238.2z"/>
	<line class="st64" x1="192.4" y1="216.4" x2="201.4" y2="216.4"/>
	<line class="st64" x1="192.8" y1="233.4" x2="201.8" y2="233.4"/>
	<line class="st64" x1="213.4" y1="220.2" x2="221.8" y2="217.4"/>
	<line class="st64" x1="214.2" y1="223.6" x2="222.8" y2="220.6"/>
</g>
<linearGradient id="SVGID_5_" gradientUnits="userSpaceOnUse" x1="95.3042" y1="482.75" x2="170.6958" y2="482.75" gradientTransform="matrix(1 0 0 1 0 4)">
	<stop  offset="0" style="stop-color:#DFDFDF"/>
	<stop  offset="0.9901" style="stop-color:#2132AD"/>
	<stop  offset="1" style="stop-color:#FFFFFF"/>
</linearGradient>
<line class="st65" x1="170.6" y1="485.6" x2="95.3" y2="487.9"/>
<path class="st66" d="M201.2,421.2c7.8-9.5,12.6-21.7,12.6-35c0-30.4-24.6-55-55-55c-26.6,0-48.8,18.9-53.9,43.9"/>
<circle id="_x31_993CIRCLE" class="st67" cx="161.2" cy="379.2" r="57"/>
<circle id="_x32_000CIRCLE" class="st67" cx="335.8" cy="435.2" r="60.5"/>
<circle id="_x32_005CIRCLE" class="st67" cx="402" cy="263.8" r="64.5"/>
<circle id="_x32_010CIRCLE" class="st67" cx="577.9" cy="361.2" r="61"/>
<circle id="_x32_017CIRCLE" class="st67" cx="636.8" cy="146.2" r="75"/>
<rect x="85.8" y="588" class="st26" width="713.8" height="267"/>
<text transform="matrix(1 0 0 1 341.9121 601.6797)"><tspan x="0" y="0" class="st27 st68">Разитие Wiley в России</tspan><tspan x="-256.1" y="38.4" class="st27 st28">С</tspan><tspan x="-247.2" y="38.4" class="st27 st28"> </tspan><tspan x="-243.3" y="38.4" class="st27 st28">момента</tspan><tspan x="-183.2" y="38.4" class="st27 st28"> </tspan><tspan x="-179.3" y="38.4" class="st27 st28">начала</tspan><tspan x="-130.6" y="38.4" class="st27 st28"> </tspan><tspan x="-126.7" y="38.4" class="st27 st28">деятельности</tspan><tspan x="-33" y="38.4" class="st27 st28">  </tspan><tspan x="-25.2" y="38.4" class="st27 st28">развитие</tspan><tspan x="38.1" y="38.4" class="st27 st28"> </tspan><tspan x="42" y="38.4" class="st27 st28">российского</tspan><tspan x="126.9" y="38.4" class="st27 st28"> </tspan><tspan x="130.8" y="38.4" class="st27 st28">подразделения</tspan><tspan x="236.3" y="38.4" class="st27 st28"> </tspan><tspan x="240.2" y="38.4" class="st27 st28">компании</tspan><tspan x="309.4" y="38.4" class="st27 st28"> </tspan><tspan x="313.3" y="38.4" class="st27 st28">Wiley</tspan><tspan x="348.2" y="38.4" class="st27 st28"> </tspan><tspan x="352.1" y="38.4" class="st27 st28">шло</tspan><tspan x="381" y="38.4" class="st27 st28"> </tspan><tspan x="384.9" y="38.4" class="st27 st28">успешно</tspan><tspan x="445" y="38.4" class="st27 st28"> </tspan><tspan x="448.9" y="38.4" class="st27 st28">и </tspan><tspan x="-256.1" y="55.2" class="st27 st28">планомерно.</tspan><tspan x="-166.5" y="55.2" class="st27 st28 st69"> </tspan><tspan x="-157.2" y="55.2" class="st27 st28">Профессиональный</tspan><tspan x="-19.9" y="55.2" class="st27 st28 st69"> </tspan><tspan x="-10.6" y="55.2" class="st27 st28">опыт</tspan><tspan x="23.9" y="55.2" class="st27 st28 st69"> </tspan><tspan x="33.2" y="55.2" class="st27 st28">российских</tspan><tspan x="111.4" y="55.2" class="st27 st28 st69"> </tspan><tspan x="120.7" y="55.2" class="st27 st28">инженеров</tspan><tspan x="198.4" y="55.2" class="st27 st28 st69"> </tspan><tspan x="207.7" y="55.2" class="st27 st28">высоко</tspan><tspan x="257.3" y="55.2" class="st27 st28 st69"> </tspan><tspan x="266.6" y="55.2" class="st27 st28">оценивался</tspan><tspan x="347.6" y="55.2" class="st27 st28 st69"> </tspan><tspan x="356.9" y="55.2" class="st27 st28">и</tspan><tspan x="365.8" y="55.2" class="st27 st28 st69"> </tspan><tspan x="375.1" y="55.2" class="st27 st28">продолжает </tspan><tspan x="-256.1" y="72" class="st27 st28">оцениваться</tspan><tspan x="-168.2" y="72" class="st27 st28 st70"> </tspan><tspan x="-160.6" y="72" class="st27 st28">руководством</tspan><tspan x="-64.9" y="72" class="st27 st28 st70"> </tspan><tspan x="-57.2" y="72" class="st27 st28">компании.</tspan><tspan x="15.6" y="72" class="st27 st28 st70">  </tspan><tspan x="30.9" y="72" class="st27 st28">Постепенно</tspan><tspan x="113.4" y="72" class="st27 st28 st70"> </tspan><tspan x="121" y="72" class="st27 st28">российское</tspan><tspan x="199.4" y="72" class="st27 st28 st70"> </tspan><tspan x="207" y="72" class="st27 st28">представительство</tspan><tspan x="338.3" y="72" class="st27 st28 st70"> </tspan><tspan x="345.9" y="72" class="st27 st28">превратилось</tspan><tspan x="442.2" y="72" class="st27 st28 st70"> </tspan><tspan x="449.8" y="72" class="st27 st28">в </tspan><tspan x="-256.1" y="88.8" class="st27 st28">крупнейший</tspan><tspan x="-168.7" y="88.8" class="st27 st28 st71"> </tspan><tspan x="-162" y="88.8" class="st27 st28">технологический</tspan><tspan x="-43.6" y="88.8" class="st27 st28 st71"> </tspan><tspan x="-36.9" y="88.8" class="st27 st28">центр</tspan><tspan x="3.7" y="88.8" class="st27 st28 st71">  </tspan><tspan x="17" y="88.8" class="st27 st28">Wiley,</tspan><tspan x="55.4" y="88.8" class="st27 st28 st71"> </tspan><tspan x="62" y="88.8" class="st27 st28">участвуя</tspan><tspan x="121.4" y="88.8" class="st27 st28 st71"> </tspan><tspan x="128" y="88.8" class="st27 st28">в</tspan><tspan x="136" y="88.8" class="st27 st28 st71"> </tspan><tspan x="142.7" y="88.8" class="st27 st28">разработке</tspan><tspan x="220.6" y="88.8" class="st27 st28 st71"> </tspan><tspan x="227.3" y="88.8" class="st27 st28">и</tspan><tspan x="236.1" y="88.8" class="st27 st28 st71"> </tspan><tspan x="242.8" y="88.8" class="st27 st28">поддержке</tspan><tspan x="317.8" y="88.8" class="st27 st28 st71"> </tspan><tspan x="324.5" y="88.8" class="st27 st28">таких</tspan><tspan x="362.3" y="88.8" class="st27 st28 st71"> </tspan><tspan x="368.9" y="88.8" class="st27 st28">флагманских </tspan><tspan x="-256.1" y="105.6" class="st27 st28">продуктов,</tspan><tspan x="-181.6" y="105.6" class="st27 st28"> </tspan><tspan x="-178.6" y="105.6" class="st27 st28">как</tspan><tspan x="-156.3" y="105.6" class="st27 st28"> </tspan><tspan x="-153.3" y="105.6" class="st27 st28">Wiley</tspan><tspan x="-118.4" y="105.6" class="st27 st28"> </tspan><tspan x="-115.4" y="105.6" class="st27 st28">PLUS,</tspan><tspan x="-78.4" y="105.6" class="st27 st28">  </tspan><tspan x="-72.4" y="105.6" class="st27 st28">Wiley</tspan><tspan x="-37.4" y="105.6" class="st27 st28"> </tspan><tspan x="-34.4" y="105.6" class="st27 st28">Online</tspan><tspan x="8.6" y="105.6" class="st27 st28"> </tspan><tspan x="11.6" y="105.6" class="st27 st28">Library,</tspan><tspan x="60.7" y="105.6" class="st27 st28">  </tspan><tspan x="66.7" y="105.6" class="st27 st28">Wiley</tspan><tspan x="101.6" y="105.6" class="st27 st28"> </tspan><tspan x="104.6" y="105.6" class="st27 st28">Efficient</tspan><tspan x="157" y="105.6" class="st27 st28"> </tspan><tspan x="160" y="105.6" class="st27 st28">Learning,</tspan><tspan x="220.5" y="105.6" class="st27 st28">  </tspan><tspan x="226.5" y="105.6" class="st27 st28">Wiley</tspan><tspan x="261.4" y="105.6" class="st27 st28"> </tspan><tspan x="264.4" y="105.6" class="st27 st28">Blackwell,</tspan><tspan x="328.1" y="105.6" class="st27 st28">  </tspan><tspan x="334.1" y="105.6" class="st27 st28">Wiley</tspan><tspan x="369" y="105.6" class="st27 st28"> </tspan><tspan x="372" y="105.6" class="st27 st28">Open</tspan><tspan x="408" y="105.6" class="st27 st28"> </tspan><tspan x="411" y="105.6" class="st27 st28">Access, </tspan><tspan x="-256.1" y="122.4" class="st27 st28">Cochrane</tspan><tspan x="-193.6" y="122.4" class="st27 st28 st72"> </tspan><tspan x="-176.4" y="122.4" class="st27 st28">Library,</tspan><tspan x="-127.3" y="122.4" class="st27 st28 st72"> </tspan><tspan x="-110.1" y="122.4" class="st27 st28">Wiley</tspan><tspan x="-75.2" y="122.4" class="st27 st28 st72"> </tspan><tspan x="-58" y="122.4" class="st27 st28">Author</tspan><tspan x="-12.8" y="122.4" class="st27 st28 st72"> </tspan><tspan x="4.3" y="122.4" class="st27 st28">Services,</tspan><tspan x="60.8" y="122.4" class="st27 st28 st72"> </tspan><tspan x="77.9" y="122.4" class="st27 st28">Jossey-Bass,</tspan><tspan x="156.6" y="122.4" class="st27 st28 st72"> </tspan><tspan x="173.7" y="122.4" class="st27 st28">Leadership</tspan><tspan x="246.2" y="122.4" class="st27 st28 st72"> </tspan><tspan x="263.4" y="122.4" class="st27 st28">Practice</tspan><tspan x="315" y="122.4" class="st27 st28 st72"> </tspan><tspan x="332.1" y="122.4" class="st27 st28">Inventory</tspan><tspan x="394.3" y="122.4" class="st27 st28 st72"> </tspan><tspan x="411.4" y="122.4" class="st27 st28">и</tspan><tspan x="420.3" y="122.4" class="st27 st28 st72"> </tspan><tspan x="437.5" y="122.4" class="st27 st28">др.</tspan><tspan x="-256.1" y="139.2" class="st27 st28">В 2011 году был открыт филиал компании в Нижнем Новгороде,  который насчитывает более 20</tspan><tspan x="-256.1" y="156" class="st27 st28">разработчиков и тестовых инженеров.   </tspan><tspan x="-256.1" y="189.6" class="st27 st28">В</tspan><tspan x="-247" y="189.6" class="st27 st28">  </tspan><tspan x="-241.1" y="189.6" class="st27 st28">настоящий</tspan><tspan x="-164.7" y="189.6" class="st27 st28"> </tspan><tspan x="-161.8" y="189.6" class="st27 st28">момент</tspan><tspan x="-109.5" y="189.6" class="st27 st28"> </tspan><tspan x="-106.6" y="189.6" class="st27 st28">компания</tspan><tspan x="-38.5" y="189.6" class="st27 st28"> </tspan><tspan x="-35.6" y="189.6" class="st27 st28">Джон</tspan><tspan x="1.6" y="189.6" class="st27 st28"> </tspan><tspan x="4.5" y="189.6" class="st27 st28">Вайли</tspan><tspan x="47.1" y="189.6" class="st27 st28"> </tspan><tspan x="50.1" y="189.6" class="st27 st28">и</tspan><tspan x="58.9" y="189.6" class="st27 st28"> </tspan><tspan x="61.9" y="189.6" class="st27 st28">Сыновья</tspan><tspan x="122.8" y="189.6" class="st27 st28"> </tspan><tspan x="125.8" y="189.6" class="st27 st28">Рус</tspan><tspan x="147.9" y="189.6" class="st27 st28"> </tspan><tspan x="150.8" y="189.6" class="st27 st28">насчитывает</tspan><tspan x="239" y="189.6" class="st27 st28"> </tspan><tspan x="241.9" y="189.6" class="st27 st28">более</tspan><tspan x="282.4" y="189.6" class="st27 st28"> </tspan><tspan x="285.4" y="189.6" class="st27 st28">270</tspan><tspan x="309.4" y="189.6" class="st27 st28"> </tspan><tspan x="312.3" y="189.6" class="st27 st28">опытных</tspan><tspan x="373.8" y="189.6" class="st27 st28"> </tspan><tspan x="376.7" y="189.6" class="st27 st28">инженеров, </tspan><tspan x="-256.1" y="206.4" class="st27 st28">специализирующихся</tspan><tspan x="-104.5" y="206.4" class="st27 st28 st73"> </tspan><tspan x="-83" y="206.4" class="st27 st28">в</tspan><tspan x="-75" y="206.4" class="st27 st28 st73"> </tspan><tspan x="-53.5" y="206.4" class="st27 st28">области</tspan><tspan x="1.1" y="206.4" class="st27 st28 st73"> </tspan><tspan x="22.6" y="206.4" class="st27 st28">разработки,</tspan><tspan x="105" y="206.4" class="st27 st28 st73"> </tspan><tspan x="126.4" y="206.4" class="st27 st28">тестирования</tspan><tspan x="221.2" y="206.4" class="st27 st28 st73"> </tspan><tspan x="242.7" y="206.4" class="st27 st28">программного</tspan><tspan x="343.1" y="206.4" class="st27 st28 st73"> </tspan><tspan x="364.6" y="206.4" class="st27 st28">обеспечения, </tspan><tspan x="-256.1" y="223.2" class="st27 st28">создания образовательного контента.   </tspan></text>
<text transform="matrix(1 0 0 1 222.2777 623.8398)" class="st27 st74">   </text>
<text transform="matrix(1 0 0 1 762.6833 657.4398)" class="st75 st76">  </text>
</svg>
