<?xml version="1.0" encoding="utf-8"?>
<!-- Generator: Adobe Illustrator 19.0.0, SVG Export Plug-In . SVG Version: 6.00 Build 0)  -->
<svg version="1.1" id="_x3F__x3F__x3F__x3F__1" xmlns="http://www.w3.org/2000/svg" xmlns:xlink="http://www.w3.org/1999/xlink"
	 x="0px" y="0px" viewBox="0 0 232.2 384.1" style="enable-background:new 0 0 232.2 384.1;" xml:space="preserve">
<style type="text/css">

	@font-face {
    font-family: 'OpenSans';
    src: url(../fonts/OpenSans.ttf);
   }
	.st0{fill-rule:evenodd;clip-rule:evenodd;fill:#C5C6C6;}
	
		.st1{fill-rule:evenodd;clip-rule:evenodd;fill:none;stroke:#F5A780;stroke-width:0.5;stroke-linecap:round;stroke-miterlimit:22.9256;stroke-dasharray:0.5,2.5002;}
	.st2{fill-rule:evenodd;clip-rule:evenodd;fill:none;stroke:#F4DED4;stroke-width:0.216;stroke-miterlimit:22.9256;}
	.st3{fill-rule:evenodd;clip-rule:evenodd;fill:#FEF3EC;}
	.st4{fill-rule:evenodd;clip-rule:evenodd;fill:none;stroke:#E4C5B9;stroke-width:0.2835;stroke-miterlimit:22.9256;}
	.st5{fill-rule:evenodd;clip-rule:evenodd;fill:#E4C5B9;}
	.st6{fill-rule:evenodd;clip-rule:evenodd;fill:url(#SVGID_1_);}
	.st7{fill-rule:evenodd;clip-rule:evenodd;fill:none;stroke:#DF855F;stroke-width:0.216;stroke-miterlimit:22.9256;}
	.st8{fill-rule:evenodd;clip-rule:evenodd;fill:#F9F9F9;}
	.st9{fill:#D5410B;}
	.st10{font-family:'OpenSans';}
	.st11{font-size:14.2381px;}
	.st12{fill-rule:evenodd;clip-rule:evenodd;fill:none;stroke:#F4DED4;stroke-width:0.75;stroke-miterlimit:22.9256;}
	.st13{fill-rule:evenodd;clip-rule:evenodd;fill:#F4DED4;}
	.st14{font-size:14.2416px;}
	.st15{font-size:17.214px;}
	.st16{fill-rule:evenodd;clip-rule:evenodd;fill:none;stroke:#C5C6C6;stroke-width:0.216;stroke-miterlimit:22.9256;}
	
		.st17{fill-rule:evenodd;clip-rule:evenodd;fill:none;stroke:#D5410B;stroke-width:0.216;stroke-linecap:round;stroke-miterlimit:22.9256;stroke-dasharray:0.216,1.08;}
	.st18{fill-rule:evenodd;clip-rule:evenodd;fill:none;stroke:#D5410B;stroke-width:0.216;stroke-miterlimit:22.9256;}
	.st19{opacity:0;fill-rule:evenodd;clip-rule:evenodd;fill:#EDDDD9;}
</style>
<rect x="7.5" y="337.1" class="st0" width="224.6" height="46.9"/>
<path class="st1" d="M62.8,270c-28.4-9.9-47.7-38.6-47.7-71.1c0-15.5,4.4-30.6,12.7-43.2"/>
<path class="st2" d="M28.5,295c1.4,0.1,2.9,0.2,4.3,0.2c29.7,0,53.8-26.2,53.8-58.4c0-13.9-4.6-27.4-12.9-37.9"/>
<circle class="st3" cx="53.3" cy="183" r="16"/>
<path class="st4" d="M166.7,63.2c1.4-0.2,2.9-0.3,4.3-0.3c18.3,0,33.1,16.1,33.1,35.9c0,6.1-1.4,12.1-4.2,17.4"/>
<path class="st5" d="M55,230.5L55,230.5l-0.2,0l-0.1,0l-0.1,0l-0.1,0l-0.1,0l-0.1,0l-0.1,0l-0.1,0l-0.1,0l-0.1,0l-0.1,0l-0.1,0
	l-0.1,0l-0.1,0h-0.1v0.7l0.1,0h0.1l0.1,0l0.1,0l0.1,0l0.1,0l0.1,0l0.1,0l0.1,0l0.1,0l0.1,0l0.1,0l0.1,0l0.1,0l0.1,0l0.1,0L55,230.5
	L55,230.5z M52.6,230.5L52.6,230.5L52.6,230.5l-0.2,0l-0.1,0l-0.1,0l-0.1,0l-0.1,0l-0.1,0l-0.1,0l-0.1,0l-0.1,0l-0.1,0l-0.1,0
	l-0.1,0l-0.1,0l-0.1,0l-0.1,0l0,0l0.1,0.7h0l0.1,0l0.1,0l0.1,0l0.1,0l0.1,0l0.1,0l0.1,0l0.1,0l0.1,0l0.1,0l0.1,0l0.1,0l0.1,0l0.1,0
	l0.1,0l0.1,0h0L52.6,230.5L52.6,230.5z M49.1,231.2L49.1,231.2l-0.1,0l-0.1,0l-0.1,0l-0.1,0l-0.1,0l-0.1,0l-0.1,0l-0.1,0l-0.1,0
	l-0.1,0l-0.1,0l-0.1,0l-0.1,0l-0.1,0l-0.1,0l-0.1,0l0,0l0.3,0.6l0,0l0.1,0l0.1,0l0.1,0l0.1,0l0.1,0l0.1,0l0.1,0l0.1,0l0.1,0l0.1,0
	l0.1,0l0.1,0l0.1,0l0.1,0l0.1,0l0.1,0l0,0L49.1,231.2L49.1,231.2z M45.9,232.7L45.9,232.7L45.9,232.7l-0.2,0.1l-0.1,0l-0.1,0l-0.1,0
	l-0.1,0l-0.1,0l-0.1,0l-0.1,0l-0.1,0l-0.1,0.1l-0.1,0.1l-0.1,0.1l-0.1,0.1l-0.1,0.1l-0.1,0.1l0,0l0.4,0.5l0,0l0.1,0l0.1,0l0.1,0
	l0.1,0l0.1,0l0.1,0l0.1,0l0.1,0l0.1,0l0.1,0l0.1,0l0.1,0l0.1,0l0.1,0l0.1,0l0.1,0l0,0L45.9,232.7L45.9,232.7z M43.2,235L43.2,235
	l-0.1,0.1l-0.1,0.1l-0.1,0.1l-0.1,0.1l-0.1,0.1l-0.1,0.1l-0.1,0.1l-0.1,0.1l-0.1,0.1l-0.1,0.1l-0.1,0.1l-0.1,0.1l-0.1,0.1l-0.1,0.1
	l-0.1,0.1l-0.1,0.1l0,0l0.6,0.4l0,0l0-0.1l0-0.1l0-0.1l0-0.1l0-0.1l0.1-0.1l0.1-0.1l0.1-0.1l0.1-0.1l0.1-0.1l0.1-0.1l0.1-0.1
	l0.1-0.1l0.1-0.1l0.1-0.1l0.1-0.1l0-0.1L43.2,235L43.2,235z M41.2,237.9L41.2,237.9l-0.1,0.1l0,0.1l0,0.1l0,0.1l0,0.1l0,0.1l0,0.1
	l0,0.1l0,0.1l0,0.1l0,0.1l0,0.1l0,0.1l0,0.1l0,0.1l0,0.1l0,0l0.6,0.3l0,0l0-0.1l0-0.1l0-0.1l0-0.1l0-0.1l0-0.1l0-0.1l0-0.1l0-0.1
	l0-0.1l0-0.1l0-0.1l0-0.1l0-0.1l0-0.1l0-0.1l0,0L41.2,237.9L41.2,237.9z M39.9,241.2L39.9,241.2l0,0.2l0,0.1l0,0.1l0,0.1l0,0.1
	l0,0.1l0,0.1l0,0.1l0,0.1l0,0.1l0,0.1l0,0.1l0,0.1l0,0.1l0,0.1l0,0l0.7,0.1l0,0l0-0.1l0-0.1l0-0.1l0-0.1l0-0.1l0-0.1l0-0.1l0-0.1
	l0-0.1l0-0.1l0-0.1l0-0.1l0-0.1l0-0.1l0-0.1l0-0.1L39.9,241.2L39.9,241.2z M39.5,244.8L39.5,244.8l0,0.1l0,0.1l0,0.1l0,0.1l0,0.1
	l0,0.1l0,0.1l0,0.1l0,0.1l0,0.1l0,0.1l0,0.1l0,0.1l0,0.1l0,0.1l0,0l0.7-0.1l0,0l0-0.1l0-0.1l0-0.1l0-0.1l0-0.1l0-0.1l0-0.1l0-0.1
	l0-0.1l0-0.1l0-0.1l0-0.1l0-0.1l0-0.1l0-0.1l0,0L39.5,244.8L39.5,244.8z M40.1,248.3L40.1,248.3L40.1,248.3l0,0.2l0,0.1l0,0.1l0,0.1
	l0,0.1l0,0.1l0,0.1l0,0.1l0,0.1l0,0.1l0,0.1l0,0.1l0,0.1l0,0.1l0,0.1l0,0.1l0.6-0.3l0,0l0-0.1l0-0.1l0-0.1l0-0.1l0-0.1l0-0.1l0-0.1
	l0-0.1l0-0.1l0-0.1l0-0.1l0-0.1l0-0.1l0-0.1l0-0.1l0-0.1v0L40.1,248.3L40.1,248.3z M41.5,251.6L41.5,251.6L41.5,251.6l0.1,0.2l0,0.1
	l0,0.1l0,0.1l0,0.1l0,0.1l0,0.1l0,0.1l0,0.1l0,0.1l0,0.1l0,0.1l0,0.1l0,0.1l0,0.1l0,0.1l0.6-0.4l0-0.1l0-0.1l0-0.1l0-0.1l0-0.1
	l0-0.1l0-0.1l0-0.1l0-0.1l0-0.1l0-0.1l0-0.1l0-0.1l0-0.1l0-0.1l0-0.1l0-0.1l0,0L41.5,251.6L41.5,251.6z M43.6,254.4L43.6,254.4
	l0.1,0.1l0.1,0.1l0.1,0.1l0.1,0.1l0.1,0.1l0.1,0.1l0.1,0.1l0.1,0.1l0.1,0.1l0.1,0.1l0.1,0.1l0.1,0.1l0.1,0.1l0.1,0.1l0.1,0.1
	l0.1,0.1l0,0l0.4-0.5l0,0l-0.1-0.1l-0.1-0.1l-0.1-0.1l-0.1-0.1l-0.1-0.1l-0.1-0.1l-0.1-0.1l-0.1-0.1l-0.1-0.1l-0.1-0.1l-0.1-0.1
	l-0.1-0.1l-0.1-0.1l-0.1-0.1l-0.1-0.1l-0.1-0.1l0,0L43.6,254.4L43.6,254.4z M46.5,256.5L46.5,256.5L46.5,256.5l0.2,0.1l0.1,0l0.1,0
	l0.1,0l0.1,0l0.1,0l0.1,0l0.1,0l0.1,0l0.1,0l0.1,0l0.1,0l0.1,0l0.1,0l0.1,0l0,0l0.3-0.6l0,0l-0.1,0l-0.1,0l-0.1,0l-0.1,0l-0.1,0
	l-0.1,0l-0.1,0l-0.1,0l-0.1,0l-0.1,0l-0.1,0l-0.1,0l-0.1,0l-0.1,0l-0.1,0l-0.1,0l0,0L46.5,256.5L46.5,256.5z M49.7,257.9L49.7,257.9
	l0.1,0l0.1,0l0.1,0l0.1,0l0.1,0l0.1,0l0.1,0l0.1,0l0.1,0l0.1,0l0.1,0l0.1,0l0.1,0l0.1,0l0.1,0l0.1,0l0.1-0.7l-0.1,0l-0.1,0l-0.1,0
	l-0.1,0l-0.1,0l-0.1,0l-0.1,0l-0.1,0l-0.1,0l-0.1,0l-0.1,0l-0.1,0l-0.1,0l-0.1,0l-0.1,0l-0.1,0l0,0L49.7,257.9L49.7,257.9z
	 M53.3,258.5L53.3,258.5l0.2,0h0.1h0.1l0.1,0l0.1,0l0.1,0l0.1,0l0.1,0l0.1,0l0.1,0l0.1,0l0.1,0l0.1,0l0.1,0l0.1,0l-0.1-0.7l-0.1,0
	l-0.1,0l-0.1,0l-0.1,0l-0.1,0l-0.1,0l-0.1,0l-0.1,0l-0.1,0l-0.1,0l-0.1,0l-0.1,0h-0.1h-0.1l-0.1,0h-0.1L53.3,258.5L53.3,258.5z
	 M56.8,258.1L56.8,258.1l0.1,0l0.1,0l0.1,0l0.1,0l0.1,0l0.1,0l0.1,0l0.1,0l0.1,0l0.1,0l0.1,0l0.1,0l0.1,0l0.1,0l0.1,0l0.1,0
	l-0.2-0.7l-0.1,0l-0.1,0l-0.1,0l-0.1,0l-0.1,0l-0.1,0l-0.1,0l-0.1,0l-0.1,0l-0.1,0l-0.1,0l-0.1,0l-0.1,0l-0.1,0l-0.1,0l-0.1,0
	l-0.1,0L56.8,258.1L56.8,258.1z M60.1,256.8L60.1,256.8L60.1,256.8l0.1-0.1l0.1,0l0.1,0l0.1,0l0.1,0l0.1,0l0.1,0l0.1,0l0.1,0l0.1,0
	l0.1,0l0.1,0l0.1,0l0.1,0l0.1,0l0.1,0l-0.4-0.6l-0.1,0l-0.1,0l-0.1,0l-0.1,0l-0.1,0l-0.1,0l-0.1,0l-0.1,0l-0.1,0l-0.1,0l-0.1,0
	l-0.1,0l-0.1,0l-0.1,0l-0.1,0l-0.1,0l-0.1,0l0,0L60.1,256.8L60.1,256.8z M63,254.7L63,254.7L63,254.7l0.2-0.2l0.1-0.1l0.1-0.1
	l0.1-0.1l0.1-0.1l0.1-0.1l0.1-0.1l0.1-0.1l0.1-0.1l0.1-0.1l0.1-0.1l0.1-0.1l0.1-0.1l0.1-0.1l0.1-0.1l0,0l-0.5-0.5l0,0l-0.1,0.1
	l-0.1,0.1l-0.1,0.1l-0.1,0.1l-0.1,0.1l-0.1,0.1l-0.1,0.1l-0.1,0.1l-0.1,0.1l-0.1,0.1l-0.1,0.1l-0.1,0.1l-0.1,0.1l-0.1,0.1l-0.1,0.1
	l-0.1,0.1l0,0L63,254.7L63,254.7z M65.3,252L65.3,252L65.3,252l0.1-0.2l0-0.1l0-0.1l0-0.1l0-0.1l0-0.1l0-0.1l0-0.1l0-0.1l0-0.1
	l0-0.1l0-0.1l0-0.1l0-0.1l0-0.1l0-0.1l-0.6-0.3l0,0.1l0,0.1l0,0.1l0,0.1l0,0.1l0,0.1l0,0.1l0,0.1l0,0.1l0,0.1l0,0.1l0,0.1l0,0.1
	l0,0.1l0,0.1l0,0.1l0,0.1l0,0L65.3,252L65.3,252z M66.8,248.8L66.8,248.8L66.8,248.8l0.1-0.2l0-0.1l0-0.1l0-0.1l0-0.1l0-0.1l0-0.1
	l0-0.1l0-0.1l0-0.1l0-0.1l0-0.1l0-0.1l0-0.1l0-0.1l0,0l-0.7-0.1l0,0l0,0.1l0,0.1l0,0.1l0,0.1l0,0.1l0,0.1l0,0.1l0,0.1l0,0.1l0,0.1
	l0,0.1l0,0.1l0,0.1l0,0.1l0,0.1l0,0.1l0,0L66.8,248.8L66.8,248.8z M67.5,245.3L67.5,245.3l0-0.1l0-0.1l0-0.1l0-0.1l0-0.1l0-0.1
	l0-0.1l0-0.1v-0.1v-0.1l0-0.1l0-0.1l0-0.1l0-0.1l0-0.1l0,0l-0.7,0l0,0l0,0.1l0,0.1l0,0.1l0,0.1v0.1l0,0.1l0,0.1v0.1l0,0.1l0,0.1
	l0,0.1l0,0.1l0,0.1l0,0.1l0,0.1l0,0L67.5,245.3L67.5,245.3z M67.3,241.7L67.3,241.7l0-0.1l0-0.1l0-0.1l0-0.1l0-0.1l0-0.1l0-0.1
	l0-0.1l0-0.1l0-0.1l0-0.1l0-0.1l0-0.1l0-0.1l0-0.1l0-0.1l0,0l-0.7,0.2l0,0l0,0.1l0,0.1l0,0.1l0,0.1l0,0.1l0,0.1l0,0.1l0,0.1l0,0.1
	l0,0.1l0,0.1l0,0.1l0,0.1l0,0.1l0,0.1l0,0.1l0,0L67.3,241.7L67.3,241.7z M66.1,238.4L66.1,238.4l-0.1-0.1l0-0.1l0-0.1l0-0.1l0-0.1
	l0-0.1l0-0.1l0-0.1l0-0.1l0-0.1l0-0.1l0-0.1l0-0.1l0-0.1l0-0.1l0-0.1l0,0l-0.6,0.4h0l0,0.1l0,0.1l0,0.1l0,0.1l0,0.1l0,0.1l0,0.1
	l0,0.1l0,0.1l0,0.1l0,0.1l0,0.1l0,0.1l0,0.1l0,0.1l0,0.1l0,0.1L66.1,238.4L66.1,238.4z M64.2,235.4L64.2,235.4L64.2,235.4l-0.1-0.2
	l-0.1-0.1l-0.1-0.1l-0.1-0.1l-0.1-0.1l-0.1-0.1l-0.1-0.1l-0.1-0.1l-0.1-0.1l-0.1-0.1l-0.1-0.1l-0.1-0.1l-0.1-0.1l-0.1-0.1l-0.1-0.1
	l0,0l-0.5,0.5l0,0l0.1,0.1l0.1,0.1l0.1,0.1l0.1,0.1l0.1,0.1l0.1,0.1l0.1,0.1l0.1,0.1l0.1,0.1l0.1,0.1l0.1,0.1l0.1,0.1l0.1,0.1
	l0.1,0.1l0.1,0.1l0.1,0.1l0,0L64.2,235.4L64.2,235.4z M61.6,233L61.6,233L61.6,233l-0.1-0.1l-0.1,0l-0.1,0l-0.1,0l-0.1,0l-0.1,0
	l-0.1,0l-0.1,0l-0.1,0l-0.1,0l-0.1,0l-0.1,0l-0.1,0l-0.1,0l-0.1,0l-0.1,0l-0.3,0.6l0.1,0l0.1,0l0.1,0l0.1,0l0.1,0l0.1,0l0.1,0l0.1,0
	l0.1,0l0.1,0l0.1,0l0.1,0l0.1,0l0.1,0l0.1,0l0.1,0l0.1,0l0,0L61.6,233L61.6,233z M58.4,231.3L58.4,231.3l-0.2-0.1l-0.1,0l-0.1,0
	l-0.1,0l-0.1,0l-0.1,0l-0.1,0l-0.1,0l-0.1,0l-0.1,0l-0.1,0l-0.1,0l-0.1,0l-0.1,0l-0.1,0l-0.1,0l-0.2,0.7l0,0l0.1,0l0.1,0l0.1,0
	l0.1,0l0.1,0l0.1,0l0.1,0l0.1,0l0.1,0l0.1,0l0.1,0l0.1,0l0.1,0l0.1,0l0.1,0l0.1,0L58.4,231.3z"/>
<linearGradient id="SVGID_1_" gradientUnits="userSpaceOnUse" x1="197.0264" y1="142.4652" x2="211.8743" y2="127.6174">
	<stop  offset="0" style="stop-color:#E9A88F"/>
	<stop  offset="1" style="stop-color:#FEF3EC"/>
</linearGradient>
<circle class="st6" cx="204.5" cy="135" r="10.5"/>
<circle class="st7" cx="193.9" cy="125.3" r="7.5"/>
<path class="st8" d="M196.2,131.8l-0.1,0l-0.1,0l-0.1,0l-0.1,0l-0.1,0l-0.1,0l-0.1,0l-0.1,0l-0.1,0l-0.1,0l-0.1,0l-0.1,0l-0.1,0
	l-0.1,0l-0.1,0l-0.1,0v1.2l0.1,0l0.1,0l0.1,0l0.1,0l0.1,0l0.1,0l0.1,0l0.1,0l0.1,0l0.1,0l0.1,0l0.1,0l0.1,0l0.1,0l0.1,0l0.1,0
	L196.2,131.8L196.2,131.8z M192.6,131.8L192.6,131.8l-0.2,0l-0.1,0l-0.1,0l-0.1,0l-0.1,0l-0.1,0l-0.1,0l-0.1,0l-0.1,0l-0.1,0l-0.1,0
	l-0.1,0l-0.1,0l-0.1,0l-0.1,0l-0.1,0l0,0l0.2,1.2h0l0.1,0l0.1,0l0.1,0l0.1,0l0.1,0l0.1,0l0.1,0l0.1,0l0.1,0l0.1,0l0.1,0l0.1,0l0.1,0
	l0.1,0l0.1,0l0.1,0l0,0L192.6,131.8L192.6,131.8z M187.1,132.9L187.1,132.9L187,133l-0.1,0l-0.1,0l-0.1,0l-0.1,0.1l-0.1,0l-0.1,0.1
	l-0.1,0.1l-0.1,0.1l-0.1,0.1l-0.1,0.1l-0.1,0.1l-0.1,0.1l-0.1,0.1l-0.1,0.1l-0.1,0.1l-0.1,0l0.4,1.1l0,0l0.1-0.1l0.1-0.1l0.1-0.1
	l0.1-0.1l0.1-0.1l0.1-0.1l0.1-0.1l0.1-0.1l0.1,0l0.1,0l0.1,0l0.1,0l0.1,0l0.1,0l0.1,0l0.1,0l0,0L187.1,132.9L187.1,132.9z
	 M182.1,135.5L182.1,135.5l-0.1,0.1l-0.1,0.1l-0.1,0.1l-0.1,0.1l-0.1,0.1l-0.1,0.1l-0.1,0.1l-0.1,0.1l-0.1,0.1l-0.1,0.1l-0.1,0.1
	l-0.1,0.1l-0.1,0.1l-0.1,0.1l-0.1,0.1l-0.1,0.1l-0.1,0.1l0.7,0.9l0.1-0.1l0.1-0.1l0.1-0.1l0.1-0.1l0.1-0.1l0.1-0.1l0.1-0.1l0.1-0.1
	l0.1-0.1l0.1-0.1l0.1-0.1l0.1-0.1l0.1-0.1l0.1-0.1l0.1-0.1l0.1-0.1l0.1-0.1l0,0L182.1,135.5L182.1,135.5z M177.9,139.4L177.9,139.4
	l-0.2,0.2l-0.1,0.1l-0.1,0.1l-0.1,0.1l-0.1,0.1l-0.1,0.1l-0.1,0.1l-0.1,0.1l-0.1,0.1l-0.1,0.1l-0.1,0.1l-0.1,0.1l-0.1,0.1l-0.1,0.1
	l-0.1,0.1l-0.1,0.1l0,0l0.9,0.7l0,0l0.1-0.1l0.1-0.1l0.1-0.1l0.1-0.1l0.1-0.1l0.1-0.1l0.1-0.1l0.1-0.1l0.1-0.1l0.1-0.1l0.1-0.1
	l0.1-0.1l0.1-0.1l0.1-0.1l0.1-0.1l0.1-0.1l0.1-0.1L177.9,139.4L177.9,139.4z M174.7,144.3L174.7,144.3l-0.1,0.2l-0.1,0.1l-0.1,0.1
	l-0.1,0.1l-0.1,0.1l-0.1,0.1l-0.1,0.1l-0.1,0.1l-0.1,0.1l-0.1,0.1l-0.1,0.1l-0.1,0.1l-0.1,0.1l-0.1,0.1l-0.1,0.1l-0.1,0.1l0,0l1,0.4
	l0,0l0-0.1l0-0.1l0-0.1l0-0.1l0.1-0.1l0.1-0.1l0.1-0.1l0.1-0.1l0.1-0.1l0.1-0.1l0.1-0.1l0.1-0.1l0.1-0.1l0.1-0.1l0.1-0.1l0.1-0.1
	l0-0.1L174.7,144.3L174.7,144.3z M172.7,150l0,0.1l0,0.1l0,0.1l0,0.1l0,0.1l0,0.1l0,0.1l0,0.1l0,0.1l0,0.1l0,0.1l0,0.1l0,0.1l0,0.1
	l0,0.1l0,0.1l0,0.1l1.1,0.1l0-0.1l0-0.1l0-0.1l0-0.1l0-0.1l0-0.1l0-0.1l0-0.1l0-0.1l0-0.1l0-0.1l0-0.1l0-0.1l0-0.1l0-0.1l0-0.1
	l0-0.1L172.7,150L172.7,150z M172.1,156L172.1,156l0,0.2l0,0.2l0,0.2l0,0.2l0,0.2l0,0.1l0,0.2l0,0.2l0,0.2l0,0.1l0,0.2l0,0.1l0,0.1
	l0,0.1l0,0.1l0,0.1l1.1-0.1l0-0.1l0-0.1l0-0.1l0-0.1l0-0.1l0-0.1l0-0.1l0-0.1l0-0.1l0-0.1l0-0.1l0-0.1l0-0.1l0-0.1l0-0.1l0-0.1
	l0-0.1L172.1,156L172.1,156z M173,161.9L173,161.9l0,0.1l0,0.1l0,0.1l0,0.1l0,0.1l0,0.1l0,0.1l0,0.1l0,0.1l0,0.1l0,0.1l0,0.1l0,0.1
	l0,0.1l0,0.1l0,0.1l0,0.1l1-0.4l0-0.1l0-0.1l0-0.1l0-0.1l0-0.1l0-0.1l0-0.1l0-0.1l0-0.1l0-0.1l0-0.1l0-0.1l0-0.1l0-0.1l0-0.1l0-0.1
	l0-0.1v0L173,161.9L173,161.9z M175.2,167.5L175.2,167.5l0.1,0.1l0.1,0.1l0.1,0.1l0.1,0.1l0.1,0.1l0.1,0.1l0.1,0.1l0.1,0.1l0.1,0.1
	l0.1,0.1l0.1,0.1l0.1,0.1l0.1,0.1l0.1,0.1l0.1,0.1l0.1,0.1l0.1,0.1l0.9-0.7l-0.1-0.1l-0.1-0.1l-0.1-0.1l-0.1-0.1l-0.1-0.1l-0.1-0.1
	l-0.1-0.1l-0.1-0.1l-0.1-0.1l-0.1-0.1l-0.1-0.1l-0.1-0.1l-0.1-0.1l-0.1-0.1l-0.1-0.1l-0.1-0.1l-0.1-0.1l0,0L175.2,167.5L175.2,167.5
	z M178.6,172.3L178.6,172.3l0.2,0.2l0.1,0.1l0.1,0.1l0.1,0.1l0.1,0.1l0.1,0.1l0.1,0.1l0.1,0.1l0.1,0.1l0.1,0.1l0.1,0.1l0.1,0.1
	l0.1,0.1l0.1,0.1l0.1,0.1l0.1,0.1l0,0l0.7-0.9l0,0l-0.1-0.1l-0.1-0.1l-0.1-0.1l-0.1-0.1l-0.1-0.1l-0.1-0.1l-0.1-0.1l-0.1-0.1
	l-0.1-0.1l-0.1-0.1l-0.1-0.1l-0.1-0.1l-0.1-0.1l-0.1-0.1l-0.1-0.1l-0.1-0.1l-0.1-0.1L178.6,172.3L178.6,172.3z M183,175.9L183,175.9
	l0.2,0.1l0.1,0.1l0.1,0.1l0.1,0.1l0.1,0.1l0.1,0.1l0.1,0.1l0.1,0.1l0.1,0.1l0.1,0.1l0.1,0.1l0.1,0.1l0.1,0.1l0.1,0.1l0.1,0.1
	l0.1,0.1l0.1,0l0.4-1.1l-0.1,0l-0.1-0.1l-0.1-0.1l-0.1-0.1l-0.1-0.1l-0.1-0.1l-0.1-0.1l-0.1-0.1l-0.1-0.1l-0.1-0.1l-0.1-0.1
	l-0.1-0.1l-0.1-0.1l-0.1-0.1l-0.1-0.1l-0.1-0.1l-0.1-0.1l0,0L183,175.9L183,175.9z M188.1,178.3L188.1,178.3l0.2,0.1l0.1,0l0.1,0
	l0.1,0l0.1,0l0.1,0l0.1,0l0.1,0l0.1,0l0.1,0l0.1,0l0.1,0l0.1,0l0.1,0l0.1,0l0.1,0l0.2-1.2l-0.1,0l-0.1,0l-0.1,0l-0.1,0l-0.1,0
	l-0.1,0l-0.1,0l-0.1,0l-0.1,0l-0.1,0l-0.1,0l-0.1,0l-0.1,0l-0.1,0l-0.1,0l-0.1,0l-0.1,0L188.1,178.3L188.1,178.3z M193.6,179.2
	l0.1,0l0.1,0h0.1h0.1l0.1,0l0.1,0l0.1,0l0.1,0l0.1,0l0.1,0l0.1,0l0.1,0l0.1,0l0.1,0l0.1,0l0.1,0l-0.1-1.2l-0.1,0l-0.1,0l-0.1,0
	l-0.1,0l-0.1,0l-0.1,0l-0.1,0l-0.1,0l-0.1,0l-0.1,0l-0.1,0l-0.1,0H194h-0.1l-0.1,0l-0.1,0L193.6,179.2L193.6,179.2z M199.1,178.5
	L199.1,178.5l0.2-0.1l0.1,0l0.1,0l0.1,0l0.1,0l0.1,0l0.1,0l0.1,0l0.1,0l0.1,0l0.1,0l0.1,0l0.1,0l0.1,0l0.1,0l0.1,0l-0.4-1.1l-0.1,0
	l-0.1,0l-0.1,0l-0.1,0l-0.1,0l-0.1,0l-0.1,0l-0.1,0l-0.1,0l-0.1,0l-0.1,0l-0.1,0l-0.1,0l-0.1,0l-0.1,0l-0.1,0l-0.1,0L199.1,178.5
	L199.1,178.5z M204.3,176.4L204.3,176.4l0.1-0.1l0.1-0.1l0.1-0.1l0.1-0.1l0.1-0.1l0.1-0.1l0.1-0.1l0.1-0.1l0.1-0.1l0.1-0.1l0.1-0.1
	l0.1-0.1l0.1-0.1l0.1-0.1l0.1-0.1l0.1-0.1l0.1-0.1l-0.6-1l-0.1,0.1l-0.1,0.1l-0.1,0.1l-0.1,0.1l-0.1,0.1l-0.1,0.1l-0.1,0.1l-0.1,0.1
	l-0.1,0.1l-0.1,0.1l-0.1,0.1l-0.1,0.1l-0.1,0.1l-0.1,0.1l-0.1,0.1l-0.1,0.1l-0.1,0.1h0L204.3,176.4L204.3,176.4z M208.8,172.9
	L208.8,172.9l0.2-0.2l0.1-0.1l0.1-0.1l0.1-0.1l0.1-0.1l0.1-0.1l0.1-0.1l0.1-0.1l0.1-0.1l0.1-0.1l0.1-0.1l0.1-0.1l0.1-0.1l0.1-0.1
	l0.1-0.1l0.1-0.1l0,0l-0.8-0.8l0,0l-0.1,0.1l-0.1,0.1l-0.1,0.1l-0.1,0.1l-0.1,0.1L209,171l-0.1,0.1l-0.1,0.1l-0.1,0.1l-0.1,0.1
	l-0.1,0.1l-0.1,0.1l-0.1,0.1l-0.1,0.1l-0.1,0.1l-0.1,0.1l-0.1,0.1L208.8,172.9L208.8,172.9z M212.4,168.3L212.4,168.3l0.1-0.1
	l0.1-0.1l0.1-0.1l0.1-0.1l0.1-0.1l0.1-0.1l0.1-0.1l0.1-0.1l0.1-0.1l0.1-0.1l0.1-0.1l0.1-0.1l0.1-0.1l0.1-0.1l0.1-0.1l0.1-0.1l0-0.1
	l-1-0.5l0,0.1l-0.1,0.1l-0.1,0.1l-0.1,0.1l-0.1,0.1l-0.1,0.1l-0.1,0.1l-0.1,0.1l-0.1,0.1l-0.1,0.1l-0.1,0.1l-0.1,0.1l-0.1,0.1
	l-0.1,0.1l-0.1,0.1l-0.1,0.1l-0.1,0.1l0,0L212.4,168.3L212.4,168.3z M214.8,162.8L214.8,162.8l0-0.2l0-0.1l0-0.1l0-0.1l0-0.1l0-0.1
	l0-0.1l0-0.1l0-0.1l0-0.1l0-0.1l0-0.1l0-0.1l0-0.1l0-0.1l0-0.1l0,0l-1.1-0.2l0,0l0,0.1l0,0.1l0,0.1l0,0.1l0,0.1l0,0.1l0,0.1l0,0.1
	l0,0.1l0,0.1l0,0.1l0,0.1l0,0.1l0,0.1l0,0.1l0,0.1l0,0L214.8,162.8L214.8,162.8z M215.8,156.9L215.8,156.9l0-0.2l0-0.2l0-0.2l0-0.2
	l0-0.2l0-0.2l0-0.2l0-0.2l0-0.2l0-0.2l0-0.2l0-0.2l0-0.2l0-0.2l0-0.2l0-0.1l-1.1,0.1l0,0.1l0,0.1l0,0.1l0,0.1l0,0.1l0,0.1v0.1v0.1
	l0,0.1l0,0.1l0,0.1l0,0.1l0,0.1l0,0.1l0,0.1l0,0.1l0,0.1L215.8,156.9L215.8,156.9z M215.4,150.9L215.4,150.9l0-0.2l0-0.1l0-0.1
	l0-0.1l0-0.1l0-0.1l0-0.1l0-0.1l0-0.1l0-0.1l0-0.1l0-0.1l0-0.1l0-0.1l0-0.1l0-0.1l0,0l-1,0.3l0,0l0,0.1l0,0.1l0,0.1l0,0.1l0,0.1
	l0,0.1l0,0.1l0,0.1l0,0.1l0,0.1l0,0.1l0,0.1l0,0.1l0,0.1l0,0.1l0,0.1l0,0.1L215.4,150.9L215.4,150.9z M213.7,145.1l0-0.1l-0.1-0.1
	l-0.1-0.1l-0.1-0.1l-0.1-0.1l-0.1-0.1l-0.1-0.1l-0.1-0.1l-0.1-0.1l-0.1-0.1l-0.1-0.1l-0.1-0.1l-0.1-0.1l-0.1-0.1l-0.1-0.1l-0.1-0.1
	l-0.1-0.1l0,0l-0.9,0.6l0,0l0.1,0.1l0.1,0.1l0.1,0.1l0.1,0.1l0.1,0.1l0.1,0.1l0.1,0.1l0.1,0.1l0.1,0.1l0.1,0.1l0.1,0.1l0.1,0.1
	l0.1,0.1l0.1,0.1l0.1,0.1l0.1,0.1l0,0.1L213.7,145.1L213.7,145.1z M210.6,140.1L210.6,140.1l-0.1-0.2l-0.1-0.1l-0.1-0.1l-0.1-0.1
	l-0.1-0.1l-0.1-0.1l-0.1-0.1l-0.1-0.1l-0.1-0.1l-0.1-0.1l-0.1-0.1l-0.1-0.1l-0.1-0.1l-0.1-0.1l-0.1-0.1l-0.1-0.1l0,0l-0.7,0.9l0,0
	l0.1,0.1l0.1,0.1l0.1,0.1l0.1,0.1l0.1,0.1l0.1,0.1l0.1,0.1l0.1,0.1l0.1,0.1l0.1,0.1l0.1,0.1l0.1,0.1l0.1,0.1l0.1,0.1l0.1,0.1
	l0.1,0.1l0,0.1L210.6,140.1L210.6,140.1z M206.5,136L206.5,136l-0.1-0.1l-0.1-0.1l-0.1-0.1l-0.1-0.1l-0.1-0.1l-0.1-0.1l-0.1-0.1
	l-0.1-0.1l-0.1-0.1l-0.1-0.1l-0.1-0.1l-0.1-0.1l-0.1-0.1l-0.1-0.1l-0.1-0.1l-0.1-0.1l-0.1-0.1l-0.5,1l0.1,0.1l0.1,0.1l0.1,0.1
	l0.1,0.1l0.1,0.1l0.1,0.1l0.1,0.1l0.1,0.1l0.1,0.1l0.1,0.1l0.1,0.1l0.1,0.1l0.1,0.1l0.1,0.1l0.1,0.1l0.1,0.1l0.1,0.1l0,0L206.5,136
	L206.5,136z M201.6,133.2l-0.1,0l-0.1-0.1l-0.1,0l-0.1,0l-0.1,0l-0.1,0l-0.1,0l-0.1,0l-0.1,0l-0.1,0l-0.1,0l-0.1,0l-0.1,0l-0.1,0
	l-0.1,0l-0.1,0l-0.1,0l-0.3,1.1l0.1,0l0.1,0l0.1,0l0.1,0l0.1,0l0.1,0l0.1,0l0.1,0l0.1,0l0.1,0l0.1,0l0.1,0l0.1,0l0.1,0l0.1,0l0.1,0
	l0.1,0L201.6,133.2z"/>
<g>
	<g>
		<path class="st5" d="M76.2,35c0,15.4-4.2,23.8-11.1,29.4c-5,4-11.5,6-19,6c-7.4,0-14.6-1.9-20-6.9c-5.7-5.3-9.9-13.2-9.9-28.4
			c0-12.7,2.9-20.7,8.1-26.3C30.4,2,39,0,46.2,0c7.3,0,14.2,1.8,20.3,7.2C72.2,12.2,76.2,21,76.2,35L76.2,35L76.2,35z M65.5,8.1
			c-4.4-4-9.3-5.8-19.3-5.8c-11.3,0-17,2.8-21,7.5C20.6,15.3,18.7,23,18.7,35c0,9.9,1.3,19.8,6.8,25.8c4.8,5.2,10.6,7.2,20.6,7.2
			c9.3,0,15.1-1.2,20.1-6.5c5.3-5.7,7.5-13.4,7.5-26.4C73.7,21.7,70.8,12.9,65.5,8.1z"/>
		<path class="st5" d="M63.9,20.9v0.4c0,0,0.9,0.1,1.5,0.9c0.6,0.8,0.7,1.9,0.1,3.9c-0.7,2.2-5.6,14.2-6.5,16.1
			c-0.5,1-0.8,2.3-0.9,2.8c0,0.2-0.2,0.2-0.2,0c-0.1-0.3-1.1-2-1.6-2.8c-0.5-0.8-3.7-4.9-6.9-9.1c-0.2-0.2-0.4-0.5-0.6-0.7
			c-0.2-0.1-0.2-0.2,0-0.3c0.3-0.3,0.4-0.4,0.6-0.7c3.2-4.5,5.8-8.2,6.1-8.5c0.7-0.9,1.2-1.6,1.5-1.8v-0.1h-8.1c0-2.6,0-4.7,0.1-5.5
			c0.1-2.9,0.4-4.1,1.8-5.7C51.4,8.7,52,8.3,52,8.3C51.9,8.1,51.8,8,51.8,8c-0.6,0.4-2,0.4-3.4,0.4c-1.5,0-6.2-0.1-8.3-0.1
			c-2.1,0-3.5,0.5-4.5,1.5c-0.9,0.9-1.9,3-2,3.4l0.3,0.2c0.3-0.4,1.1-1.1,2-1.5c1.1-0.4,2-0.5,3.4-0.5c1.3,0,4.7,0.1,5.7,0.1
			c1,0,1.8-0.1,2.3-0.2c0.6-0.2,0.8-0.2,1-0.4c0.4-0.3,0.5,0.1,0.2,0.3c-0.2,0.2-0.7,0.7-1.2,1.3c-1.1,1.4-2.1,3-2.1,6.6
			c0,0.5,0,1.1,0,1.8h-10V21c0,0,0.8,0.6,1.9,2.1c0.4,0.6,3.5,4.6,7,9.2c0.2,0.2,0.5,0.6,0.7,0.8c0.2,0.1,0.1,0.2,0,0.3
			c-0.2,0.3-0.4,0.4-0.7,0.9c-3.3,4.5-6.4,8.9-6.7,9.3c-0.6,1-0.8,1.2-0.9,1.6c-0.1,0.3-0.3,0.5-0.4,0.1c-0.1-0.5-0.2-1.2-1-3.1
			c-0.8-1.9-7-15.7-7.5-16.8c-0.7-1.5-0.5-2.6-0.1-3.2c0.3-0.5,0.8-0.8,1.2-0.9v-0.4H21v0.4c0,0,0.5,0.1,0.7,0.3
			c0.3,0.3,0.7,1.1,1,1.6C23.6,25,33.9,47.9,34.4,49c0.7,1.7,0.8,2.2,0.8,2.2h0.2c0,0,1.1-1.8,2.7-4c0.5-0.7,3.2-4.8,6.5-9.3
			c0.2-0.3,0.5-0.6,0.7-1c0.1-0.2,0.2-0.2,0.2,0.1c0,0.2-0.1,1.2-0.1,1.4c0,6.5,0.1,13.6,0.2,17.4c0,4.6-1,6-3.1,6
			c-0.6,0-1.2-0.2-1.5-0.5c-0.3-0.3-0.5-0.8,0.3-1c0.7-0.2,1.4-1,1.4-2.3c0-1.3-0.9-2.6-2.5-2.6c-1.7,0-2.9,1.5-2.9,3.7
			c0,1.7,1.2,4.7,5.4,4.6c5-0.1,6.2-4.4,6.4-6.5c0.1-1.6,0.1-3.1,0.1-5.6c0-1.7-0.1-6.8-0.1-11.4c0-0.3,0-1,0-1.3
			c-0.1-0.4,0-0.4,0.2-0.1c0.2,0.4,0.5,0.9,0.5,1c3.3,4.4,5.9,8,6.3,8.6c1.5,2.1,2.1,3,2.1,3h0.2c0,0,0.5-1.7,1.2-3.2
			c0.7-1.5,9.5-22.9,9.8-23.7c0.4-0.9,0.9-1.9,1.3-2.3c0.3-0.3,0.6-0.6,1-0.7v-0.4H63.9L63.9,20.9L63.9,20.9z M52.4,22.6
			c0.1,0,0.3,0,0.4,0c0.2,0,0.2,0,0,0.2c-0.1,0.1-0.4,0.5-0.7,0.7c0,0.1-1.1,1.4-2.6,3.4c-0.2,0.3-0.4,0.6-0.6,1
			c-0.1,0.3-0.2,0.3-0.2-0.1c0-0.3,0-0.8,0.1-1.3c0-1.3,0-2.6,0-3.9C48.9,22.6,52.1,22.6,52.4,22.6L52.4,22.6L52.4,22.6z M45.2,28
			c-0.2-0.4-0.8-1.3-0.9-1.4c-1.5-2-2.2-2.8-2.4-3.1c-0.2-0.2-0.3-0.5-0.4-0.6c-0.2-0.2-0.1-0.3,0.1-0.2c0.1,0,0.4,0,0.5,0h3.2
			c0,1.3,0,2.4,0,3.9c0,0.6,0,0.9,0,1.3C45.4,28.3,45.3,28.2,45.2,28z"/>
	</g>
	<text transform="matrix(1.1132 0 0 1 80.7894 29.5653)"><tspan x="0" y="0" class="st9 st10 st11">С</tspan><tspan x="9" y="0" class="st9 st10 st11">истемы </tspan><tspan x="0" y="14.2" class="st9 st10 st11">э</tspan><tspan x="7" y="14.2" class="st9 st10 st11">лектронного </tspan><tspan x="0" y="28.5" class="st9 st10 st11">о</tspan><tspan x="8.6" y="28.5" class="st9 st10 st11">бучения</tspan></text>
</g>
<g>
	<path class="st12" d="M72.5,103.4h86.4v36.4h24.9v36.9h19.3v17.1H28.2v-17.1h19.3v-36.9h24.9V103.4L72.5,103.4z M115.6,49.9
		l23.3,26.2l23.3,26.2h-46.6H69l23.3-26.2L115.6,49.9z"/>
	<rect x="84.3" y="118.7" class="st12" width="62.6" height="69.4"/>
	<path class="st12" d="M115.7,177.7c11.2,0,20.4-9.9,20.4-22.1s-9.2-22.1-20.4-22.1s-20.4,9.9-20.4,22.1S104.4,177.7,115.7,177.7z"
		/>
</g>
<g>
	<g>
		<path class="st13" d="M186.2,283.2c16.8,0,30.5-13.7,30.5-30.5c0-16.8-13.7-30.5-30.5-30.5s-30.5,13.7-30.5,30.5
			C155.7,269.5,169.4,283.2,186.2,283.2z"/>
		<path class="st8" d="M177.7,245.6V261h-7.3v-15.5H177.7L177.7,245.6z M172.4,239.5c3.2,0,2.6-0.2,5.3,0.4v3.3h-7.3v-3.3
			C171.3,239.7,171.3,239.5,172.4,239.5L172.4,239.5z M170.4,263.5h7.3c-0.3,1.3-0.8,1.6-2.4,1.6h-2.4
			C171.3,265.1,170.7,264.8,170.4,263.5L170.4,263.5z M183.4,235c2.4,0,2.2,0.4,4.1,0.8v23.6c0,7.1,0,5.9-7.3,5.3v-28.9
			C181.1,235.4,181.9,235,183.4,235L183.4,235z M194.8,265.5h-5.3c1.1-2.3,0.4-11.9,0.4-15.5c0.2,0.3,0.2,0.2,0.4,0.8
			c0.3,0.8,0.1,0.2,0.3,0.9L194.8,265.5L194.8,265.5z M197.2,239.5c0.1,1.5,0.9,3.3,1.2,4.9c-2.2,0.5-4.7,1.9-6.9,2
			C189,241.1,190.6,239.5,197.2,239.5L197.2,239.5z M200.5,250.1c-2.1,0.1-4.7,1.5-6.9,2c0,2.2,1.2,5,1.8,7.1c0.8,3,1.3,5.9,2.7,5.9
			c3,0,4-0.9,6.1-2C204,261.3,201.2,253,200.5,250.1L200.5,250.1z M192.4,250.1c1.5-0.3,2.5-0.8,3.9-1.3c3.7-1.5,3.4-0.7,3.1-1.7
			c-0.4-1.4-2.9,0.8-7,1.8V250.1L192.4,250.1z M205,265.5c2.2-3.4,2.4,0-0.2-9.1l-4.4-14.3c-0.8-2.7-1-5-4.3-5
			c-2.4,0-4.5,0.8-6.1,1.6c0-2.2,0.2-3.5-1.1-4.6c-2.4-2-6.7-1.9-9.3-0.6c-2,0.9-1.7,1.4-1.7,4c-3-0.7-9.8-0.9-9.8,2.4v25.6h-4.1
			c-1.7,0-2.2,2.4,0.8,2.4h43.5c1.3,0,1.5-0.8,1.6-2C208.5,265.3,206.9,265.5,205,265.5z"/>
	</g>
	<text transform="matrix(1.1115 0 0 1 70.7112 233.2117)"><tspan x="0" y="0" class="st9 st10 st14">Н</tspan><tspan x="10.5" y="0" class="st9 st10 st14">аучные </tspan><tspan x="0" y="17.2" class="st9 st10 st14">п</tspan><tspan x="8.8" y="17.2" class="st9 st10 st14">убликации</tspan></text>
</g>
<text transform="matrix(1.1115 0 0 1 45.8323 313.2801)" class="st9 st10 st14">О</text>
<text transform="matrix(1.1115 0 0 1 58.16 313.2801)" class="st9 st10 st14">нлайн журналы</text>
<text transform="matrix(0.9207 0 0 1 179.5901 313.2801)" class="st9 st10 st15"> </text>
<text transform="matrix(1.1115 0 0 1 24.5237 130.4237)"><tspan x="0" y="0" class="st9 st10 st14">С</tspan><tspan x="9" y="0" class="st9 st10 st14">истемы</tspan><tspan x="0" y="17.2" class="st9 st10 st14">п</tspan><tspan x="8.8" y="17.2" class="st9 st10 st14">рофессионального </tspan><tspan x="0" y="34.4" class="st9 st10 st14">о</tspan><tspan x="8.6" y="34.4" class="st9 st10 st14">бразования</tspan></text>
<path class="st8" d="M126.9,367.6h0.2l8.2-22.1c0.8-2.1,1.5-3.2,2.3-3.7v-0.2h-4.9v0.2c1,0.6,1.2,2.3,0.6,4.2l-5,13.7l-6.8-18.1
	h-0.2l-7.2,18.1l-5.2-14.2c-0.6-1.7-0.4-2.9,0.5-3.6v-0.2h-7.1v0.2c0.7,0.4,1.3,1.4,2,3.2l8.4,22.6h0.2l7.1-18.3L126.9,367.6
	L126.9,367.6z M179.9,354.9v-7.2h6.9c3.2,0,4.3,0.5,5.5,2.3l0.2-0.1l-0.4-3.9h-17.3l0,0.2c1,0.7,1.3,1.7,1.3,3.1v14.2
	c0,1.5-0.3,2.4-1.3,3.1l0,0.2H193l0.7-4.2l-0.2-0.1c-1.2,1.7-2.6,2.6-5.7,2.6h-7.9v-8.5h5.3c2.3,0,3.4,0.4,4,1.5h0.2v-4.5l-0.2-0.1
	c-0.6,1.1-1.7,1.4-4,1.4H179.9L179.9,354.9z M203.1,366.7l0,0.2h6.6v-0.2c-1.1-0.7-1.4-1.8-1.4-3.5v-4.9l5.9-9.1
	c1.1-1.7,2-2.7,2.7-3V346h-5.2v0.2c0.9,0.6,1.1,2,0.1,3.5l-4.3,6.7l-4.7-7.6c-0.7-1.2-0.6-2.2,0.3-2.7V346h-7.3v0.2
	c0.9,0.4,1.4,0.9,2.3,2.4l6.4,10v4.6C204.5,364.9,204.2,366,203.1,366.7L203.1,366.7z M171,366.9l0.9-4.4l-0.2-0.1
	c-1.1,1.9-2.9,2.7-5.5,2.7h-7.5v-15.5c0-1.8,0.4-2.8,1.5-3.5V346h-6.6l0,0.2c1,0.7,1.3,1.7,1.3,3.1v14.2c0,1.5-0.3,2.4-1.3,3.1
	l0,0.2H171L171,366.9z M141.7,363.4c0,1.6-0.3,2.6-1.4,3.3v0.2h6.6v-0.2c-1.1-0.7-1.4-1.7-1.4-3.3v-13.9c0-1.6,0.3-2.6,1.4-3.3V346
	h-6.6v0.2c1.1,0.7,1.4,1.7,1.4,3.3V363.4z"/>
<line class="st16" x1="232.1" y1="60.8" x2="232.1" y2="312.7"/>
<line class="st17" x1="7.5" y1="13.8" x2="7.5" y2="384"/>
<line class="st18" x1="7.5" y1="8.9" x2="0.1" y2="16.5"/>
<a style="cursor:pointer">
	<rect id="RECTELEARN" onclick="EventClick(evt)" x="0.1" y="2.3" class="st19" width="232" height="80.2" />
</a>
<a style="cursor:pointer">
	<rect id="RECTPROFDEV" onclick="EventClick(evt)" x="3.8" y="108.5" class="st19" width="186.6" height="90.6" />
</a>
<a style="cursor:pointer">
	<rect id="RECTSCIENTPUBL" onclick="EventClick(evt)" x="28.5" y="212.9" class="st19" width="203.5" height="52.6" />
</a>
<a style="cursor:pointer">
	<rect id="RECTONLINEJOUR" onclick="EventClick(evt)" x="28.5" y="295" class="st19" width="166.2" height="31.4" />
</a>

<script  type="text/ecmascript">

	<![CDATA[

    function EventClick(evt)
    {
    var wileylink = evt.target.id;
    if (wileylink == "RECTELEARN") {
            window.open("https://www.wileyplus.com/WileyCDA/");
      }
    else if (wileylink == "RECTPROFDEV") {
     	       window.open("https://www.efficientlearning.com/");
      }
    else if (wileylink == "RECTSCIENTPUBL") {
      	      window.open ("http://onlinelibrary.wiley.com/");
      }

    else if (wileylink == "RECTONLINEJOUR") {
      	  	   window.open("http://onlinelibrary.wiley.com/browse/publications?type=journal");
      }
    }
		]]>
   </script>
</svg>
